G04 EAGLE Gerber X2 export*
%TF.Part,Single*%
%TF.FileFunction,Paste,Top*%
%TF.FilePolarity,Positive*%
%TF.GenerationSoftware,Autodesk,EAGLE,8.7.1*%
%TF.CreationDate,2021-04-07T17:30:31Z*%
G75*
%MOMM*%
%FSLAX34Y34*%
%LPD*%
%AMOC8*
5,1,8,0,0,1.08239X$1,22.5*%
G01*
%ADD10R,0.889000X0.889000*%
%ADD11R,0.850000X0.300000*%
%ADD12R,0.300000X0.850000*%
%ADD13R,4.250000X4.250000*%
%ADD14R,1.000000X1.000000*%
%ADD15R,2.000000X1.200000*%
%ADD16R,1.350000X0.600000*%
%ADD17R,0.900000X0.700000*%
%ADD18R,1.000000X0.900000*%
%ADD19R,0.700000X0.900000*%


D10*
X160020Y163948D03*
X160020Y146948D03*
X103632Y146948D03*
X103632Y163948D03*
D11*
X160564Y77322D03*
X160564Y82322D03*
X160564Y87322D03*
X160564Y92322D03*
X160564Y97322D03*
X160564Y102322D03*
X160564Y107322D03*
X160564Y112322D03*
X160564Y117322D03*
X160564Y122322D03*
D12*
X153564Y129322D03*
X148564Y129322D03*
X143564Y129322D03*
X138564Y129322D03*
X133564Y129322D03*
X128564Y129322D03*
X123564Y129322D03*
X118564Y129322D03*
X113564Y129322D03*
X108564Y129322D03*
D11*
X101564Y122322D03*
X101564Y117322D03*
X101564Y112322D03*
X101564Y107322D03*
X101564Y102322D03*
X101564Y97322D03*
X101564Y92322D03*
X101564Y87322D03*
X101564Y82322D03*
X101564Y77322D03*
D12*
X108564Y70322D03*
X113564Y70322D03*
X118564Y70322D03*
X123564Y70322D03*
X128564Y70322D03*
X133564Y70322D03*
X138564Y70322D03*
X143564Y70322D03*
X148564Y70322D03*
X153564Y70322D03*
D13*
X131064Y99822D03*
D10*
X211192Y103632D03*
X194192Y103632D03*
X211192Y91440D03*
X194192Y91440D03*
X149352Y35696D03*
X149352Y52696D03*
X211192Y128016D03*
X194192Y128016D03*
X162306Y35696D03*
X162306Y52696D03*
D14*
X194192Y79248D03*
X211192Y79248D03*
X194192Y115824D03*
X211192Y115824D03*
D10*
X236220Y73796D03*
X236220Y90796D03*
X236220Y121276D03*
X236220Y104276D03*
X248412Y73796D03*
X248412Y90796D03*
X248412Y104276D03*
X248412Y121276D03*
X224028Y90796D03*
X224028Y73796D03*
X224028Y121276D03*
X224028Y104276D03*
X211192Y152400D03*
X194192Y152400D03*
X211192Y67056D03*
X194192Y67056D03*
X172212Y146948D03*
X172212Y163948D03*
X211192Y140208D03*
X194192Y140208D03*
D15*
X18622Y127060D03*
X18622Y71060D03*
D16*
X55372Y114060D03*
X55372Y104060D03*
X55372Y94060D03*
X55372Y84060D03*
D10*
X194192Y42672D03*
X211192Y42672D03*
D17*
X175260Y50696D03*
X175260Y37696D03*
D10*
X76200Y35696D03*
X76200Y52696D03*
D17*
X64008Y37696D03*
X64008Y50696D03*
D18*
X143064Y163448D03*
X119064Y163448D03*
X119064Y147448D03*
X143064Y147448D03*
D10*
X211192Y54864D03*
X194192Y54864D03*
X102108Y52696D03*
X102108Y35696D03*
X114300Y35696D03*
X114300Y52696D03*
X89916Y35696D03*
X89916Y52696D03*
X89916Y146948D03*
X89916Y163948D03*
D19*
X258676Y97536D03*
X271676Y97536D03*
D10*
X64008Y146948D03*
X64008Y163948D03*
X76200Y146948D03*
X76200Y163948D03*
X128016Y52696D03*
X128016Y35696D03*
M02*
