G04 EAGLE Gerber RS-274X export*
G75*
%MOMM*%
%FSLAX34Y34*%
%LPD*%
%INSolderpaste Top*%
%IPPOS*%
%AMOC8*
5,1,8,0,0,1.08239X$1,22.5*%
G01*
%ADD10C,0.190000*%
%ADD11C,0.080000*%
%ADD12C,0.160000*%
%ADD13C,0.050000*%
%ADD14C,0.052000*%
%ADD15R,0.900000X0.900000*%
%ADD16R,1.200000X1.200000*%
%ADD17C,0.220000*%
%ADD18C,0.140000*%
%ADD19R,1.200000X0.550000*%
%ADD20C,0.060000*%
%ADD21C,0.250000*%
%ADD22C,0.090000*%
%ADD23C,0.040000*%
%ADD24C,0.150000*%
%ADD25C,0.110000*%
%ADD26R,0.400000X0.700000*%
%ADD27R,1.150000X1.300000*%
%ADD28R,0.500000X0.650000*%


D10*
X101360Y117720D02*
X109460Y117720D01*
X109460Y110120D01*
X101360Y110120D01*
X101360Y117720D01*
X101360Y111925D02*
X109460Y111925D01*
X109460Y113730D02*
X101360Y113730D01*
X101360Y115535D02*
X109460Y115535D01*
X109460Y117340D02*
X101360Y117340D01*
X101360Y133720D02*
X109460Y133720D01*
X109460Y126120D01*
X101360Y126120D01*
X101360Y133720D01*
X101360Y127925D02*
X109460Y127925D01*
X109460Y129730D02*
X101360Y129730D01*
X101360Y131535D02*
X109460Y131535D01*
X109460Y133340D02*
X101360Y133340D01*
D11*
X288085Y94310D02*
X288085Y91110D01*
X288085Y94310D02*
X291285Y94310D01*
X291285Y91110D01*
X288085Y91110D01*
X288085Y91870D02*
X291285Y91870D01*
X291285Y92630D02*
X288085Y92630D01*
X288085Y93390D02*
X291285Y93390D01*
X291285Y94150D02*
X288085Y94150D01*
X281485Y94310D02*
X281485Y91110D01*
X281485Y94310D02*
X284685Y94310D01*
X284685Y91110D01*
X281485Y91110D01*
X281485Y91870D02*
X284685Y91870D01*
X284685Y92630D02*
X281485Y92630D01*
X281485Y93390D02*
X284685Y93390D01*
X284685Y94150D02*
X281485Y94150D01*
X288720Y49860D02*
X288720Y46660D01*
X288720Y49860D02*
X291920Y49860D01*
X291920Y46660D01*
X288720Y46660D01*
X288720Y47420D02*
X291920Y47420D01*
X291920Y48180D02*
X288720Y48180D01*
X288720Y48940D02*
X291920Y48940D01*
X291920Y49700D02*
X288720Y49700D01*
X282120Y49860D02*
X282120Y46660D01*
X282120Y49860D02*
X285320Y49860D01*
X285320Y46660D01*
X282120Y46660D01*
X282120Y47420D02*
X285320Y47420D01*
X285320Y48180D02*
X282120Y48180D01*
X282120Y48940D02*
X285320Y48940D01*
X285320Y49700D02*
X282120Y49700D01*
X269668Y48331D02*
X267406Y50593D01*
X269668Y52855D01*
X271930Y50593D01*
X269668Y48331D01*
X270428Y49091D02*
X268908Y49091D01*
X268148Y49851D02*
X271188Y49851D01*
X271912Y50611D02*
X267424Y50611D01*
X268184Y51371D02*
X271152Y51371D01*
X270392Y52131D02*
X268944Y52131D01*
X262740Y45927D02*
X265002Y43665D01*
X262740Y45927D02*
X265002Y48189D01*
X267264Y45927D01*
X265002Y43665D01*
X265762Y44425D02*
X264242Y44425D01*
X263482Y45185D02*
X266522Y45185D01*
X267246Y45945D02*
X262758Y45945D01*
X263518Y46705D02*
X266486Y46705D01*
X265726Y47465D02*
X264278Y47465D01*
X190414Y36313D02*
X188152Y34051D01*
X185890Y36313D01*
X188152Y38575D01*
X190414Y36313D01*
X188912Y34811D02*
X187392Y34811D01*
X186632Y35571D02*
X189672Y35571D01*
X190396Y36331D02*
X185908Y36331D01*
X186668Y37091D02*
X189636Y37091D01*
X188876Y37851D02*
X187428Y37851D01*
X195081Y31647D02*
X192819Y29385D01*
X190557Y31647D01*
X192819Y33909D01*
X195081Y31647D01*
X193579Y30145D02*
X192059Y30145D01*
X191299Y30905D02*
X194339Y30905D01*
X195063Y31665D02*
X190575Y31665D01*
X191335Y32425D02*
X194303Y32425D01*
X193543Y33185D02*
X192095Y33185D01*
D10*
X132320Y117720D02*
X124220Y117720D01*
X132320Y117720D02*
X132320Y110120D01*
X124220Y110120D01*
X124220Y117720D01*
X124220Y111925D02*
X132320Y111925D01*
X132320Y113730D02*
X124220Y113730D01*
X124220Y115535D02*
X132320Y115535D01*
X132320Y117340D02*
X124220Y117340D01*
X124220Y133720D02*
X132320Y133720D01*
X132320Y126120D01*
X124220Y126120D01*
X124220Y133720D01*
X124220Y127925D02*
X132320Y127925D01*
X132320Y129730D02*
X124220Y129730D01*
X124220Y131535D02*
X132320Y131535D01*
X132320Y133340D02*
X124220Y133340D01*
D11*
X313260Y146990D02*
X313260Y150190D01*
X313260Y146990D02*
X310060Y146990D01*
X310060Y150190D01*
X313260Y150190D01*
X313260Y147750D02*
X310060Y147750D01*
X310060Y148510D02*
X313260Y148510D01*
X313260Y149270D02*
X310060Y149270D01*
X310060Y150030D02*
X313260Y150030D01*
X319860Y150190D02*
X319860Y146990D01*
X316660Y146990D01*
X316660Y150190D01*
X319860Y150190D01*
X319860Y147750D02*
X316660Y147750D01*
X316660Y148510D02*
X319860Y148510D01*
X319860Y149270D02*
X316660Y149270D01*
X316660Y150030D02*
X319860Y150030D01*
X231980Y134950D02*
X231980Y131750D01*
X228780Y131750D01*
X228780Y134950D01*
X231980Y134950D01*
X231980Y132510D02*
X228780Y132510D01*
X228780Y133270D02*
X231980Y133270D01*
X231980Y134030D02*
X228780Y134030D01*
X228780Y134790D02*
X231980Y134790D01*
X238580Y134950D02*
X238580Y131750D01*
X235380Y131750D01*
X235380Y134950D01*
X238580Y134950D01*
X238580Y132510D02*
X235380Y132510D01*
X235380Y133270D02*
X238580Y133270D01*
X238580Y134030D02*
X235380Y134030D01*
X235380Y134790D02*
X238580Y134790D01*
D10*
X254107Y56633D02*
X259833Y50907D01*
X254107Y56633D02*
X259481Y62007D01*
X265207Y56281D01*
X259833Y50907D01*
X261638Y52712D02*
X258028Y52712D01*
X256223Y54517D02*
X263443Y54517D01*
X265166Y56322D02*
X254418Y56322D01*
X255601Y58127D02*
X263361Y58127D01*
X261556Y59932D02*
X257406Y59932D01*
X259211Y61737D02*
X259751Y61737D01*
X242793Y45319D02*
X248519Y39593D01*
X242793Y45319D02*
X248167Y50693D01*
X253893Y44967D01*
X248519Y39593D01*
X250324Y41398D02*
X246714Y41398D01*
X244909Y43203D02*
X252129Y43203D01*
X253852Y45008D02*
X243104Y45008D01*
X244287Y46813D02*
X252047Y46813D01*
X250242Y48618D02*
X246092Y48618D01*
X247897Y50423D02*
X248437Y50423D01*
D11*
X284685Y108890D02*
X284685Y112090D01*
X284685Y108890D02*
X281485Y108890D01*
X281485Y112090D01*
X284685Y112090D01*
X284685Y109650D02*
X281485Y109650D01*
X281485Y110410D02*
X284685Y110410D01*
X284685Y111170D02*
X281485Y111170D01*
X281485Y111930D02*
X284685Y111930D01*
X291285Y112090D02*
X291285Y108890D01*
X288085Y108890D01*
X288085Y112090D01*
X291285Y112090D01*
X291285Y109650D02*
X288085Y109650D01*
X288085Y110410D02*
X291285Y110410D01*
X291285Y111170D02*
X288085Y111170D01*
X288085Y111930D02*
X291285Y111930D01*
D12*
X99840Y63390D02*
X99840Y55990D01*
X93440Y55990D01*
X93440Y63390D01*
X99840Y63390D01*
X99840Y57510D02*
X93440Y57510D01*
X93440Y59030D02*
X99840Y59030D01*
X99840Y60550D02*
X93440Y60550D01*
X93440Y62070D02*
X99840Y62070D01*
X114840Y63390D02*
X114840Y55990D01*
X108440Y55990D01*
X108440Y63390D01*
X114840Y63390D01*
X114840Y57510D02*
X108440Y57510D01*
X108440Y59030D02*
X114840Y59030D01*
X114840Y60550D02*
X108440Y60550D01*
X108440Y62070D02*
X114840Y62070D01*
D13*
X463870Y63330D02*
X463870Y58830D01*
X458370Y58830D01*
X458370Y63330D01*
X463870Y63330D01*
X463870Y59305D02*
X458370Y59305D01*
X458370Y59780D02*
X463870Y59780D01*
X463870Y60255D02*
X458370Y60255D01*
X458370Y60730D02*
X463870Y60730D01*
X463870Y61205D02*
X458370Y61205D01*
X458370Y61680D02*
X463870Y61680D01*
X463870Y62155D02*
X458370Y62155D01*
X458370Y62630D02*
X463870Y62630D01*
X463870Y63105D02*
X458370Y63105D01*
X463870Y73830D02*
X463870Y78330D01*
X463870Y73830D02*
X458370Y73830D01*
X458370Y78330D01*
X463870Y78330D01*
X463870Y74305D02*
X458370Y74305D01*
X458370Y74780D02*
X463870Y74780D01*
X463870Y75255D02*
X458370Y75255D01*
X458370Y75730D02*
X463870Y75730D01*
X463870Y76205D02*
X458370Y76205D01*
X458370Y76680D02*
X463870Y76680D01*
X463870Y77155D02*
X458370Y77155D01*
X458370Y77630D02*
X463870Y77630D01*
X463870Y78105D02*
X458370Y78105D01*
X445870Y70830D02*
X445870Y66330D01*
X440370Y66330D01*
X440370Y70830D01*
X445870Y70830D01*
X445870Y66805D02*
X440370Y66805D01*
X440370Y67280D02*
X445870Y67280D01*
X445870Y67755D02*
X440370Y67755D01*
X440370Y68230D02*
X445870Y68230D01*
X445870Y68705D02*
X440370Y68705D01*
X440370Y69180D02*
X445870Y69180D01*
X445870Y69655D02*
X440370Y69655D01*
X440370Y70130D02*
X445870Y70130D01*
X445870Y70605D02*
X440370Y70605D01*
D14*
X246056Y96875D02*
X240768Y91587D01*
X246056Y96875D02*
X247526Y95405D01*
X242238Y90117D01*
X240768Y91587D01*
X241744Y90611D02*
X242732Y90611D01*
X243226Y91105D02*
X241250Y91105D01*
X240780Y91599D02*
X243720Y91599D01*
X244214Y92093D02*
X241274Y92093D01*
X241768Y92587D02*
X244708Y92587D01*
X245202Y93081D02*
X242262Y93081D01*
X242756Y93575D02*
X245696Y93575D01*
X246190Y94069D02*
X243250Y94069D01*
X243744Y94563D02*
X246684Y94563D01*
X247178Y95057D02*
X244238Y95057D01*
X244732Y95551D02*
X247380Y95551D01*
X246886Y96045D02*
X245226Y96045D01*
X245720Y96539D02*
X246392Y96539D01*
X242521Y100411D02*
X237233Y95123D01*
X242521Y100411D02*
X243991Y98941D01*
X238703Y93653D01*
X237233Y95123D01*
X238209Y94147D02*
X239197Y94147D01*
X239691Y94641D02*
X237715Y94641D01*
X237245Y95135D02*
X240185Y95135D01*
X240679Y95629D02*
X237739Y95629D01*
X238233Y96123D02*
X241173Y96123D01*
X241667Y96617D02*
X238727Y96617D01*
X239221Y97111D02*
X242161Y97111D01*
X242655Y97605D02*
X239715Y97605D01*
X240209Y98099D02*
X243149Y98099D01*
X243643Y98593D02*
X240703Y98593D01*
X241197Y99087D02*
X243845Y99087D01*
X243351Y99581D02*
X241691Y99581D01*
X242185Y100075D02*
X242857Y100075D01*
X238985Y103946D02*
X233697Y98658D01*
X238985Y103946D02*
X240455Y102476D01*
X235167Y97188D01*
X233697Y98658D01*
X234673Y97682D02*
X235661Y97682D01*
X236155Y98176D02*
X234179Y98176D01*
X233709Y98670D02*
X236649Y98670D01*
X237143Y99164D02*
X234203Y99164D01*
X234697Y99658D02*
X237637Y99658D01*
X238131Y100152D02*
X235191Y100152D01*
X235685Y100646D02*
X238625Y100646D01*
X239119Y101140D02*
X236179Y101140D01*
X236673Y101634D02*
X239613Y101634D01*
X240107Y102128D02*
X237167Y102128D01*
X237661Y102622D02*
X240309Y102622D01*
X239815Y103116D02*
X238155Y103116D01*
X238649Y103610D02*
X239321Y103610D01*
X235449Y107482D02*
X230161Y102194D01*
X235449Y107482D02*
X236919Y106012D01*
X231631Y100724D01*
X230161Y102194D01*
X231137Y101218D02*
X232125Y101218D01*
X232619Y101712D02*
X230643Y101712D01*
X230173Y102206D02*
X233113Y102206D01*
X233607Y102700D02*
X230667Y102700D01*
X231161Y103194D02*
X234101Y103194D01*
X234595Y103688D02*
X231655Y103688D01*
X232149Y104182D02*
X235089Y104182D01*
X235583Y104676D02*
X232643Y104676D01*
X233137Y105170D02*
X236077Y105170D01*
X236571Y105664D02*
X233631Y105664D01*
X234125Y106158D02*
X236773Y106158D01*
X236279Y106652D02*
X234619Y106652D01*
X235113Y107146D02*
X235785Y107146D01*
X231914Y111017D02*
X226626Y105729D01*
X231914Y111017D02*
X233384Y109547D01*
X228096Y104259D01*
X226626Y105729D01*
X227602Y104753D02*
X228590Y104753D01*
X229084Y105247D02*
X227108Y105247D01*
X226638Y105741D02*
X229578Y105741D01*
X230072Y106235D02*
X227132Y106235D01*
X227626Y106729D02*
X230566Y106729D01*
X231060Y107223D02*
X228120Y107223D01*
X228614Y107717D02*
X231554Y107717D01*
X232048Y108211D02*
X229108Y108211D01*
X229602Y108705D02*
X232542Y108705D01*
X233036Y109199D02*
X230096Y109199D01*
X230590Y109693D02*
X233238Y109693D01*
X232744Y110187D02*
X231084Y110187D01*
X231578Y110681D02*
X232250Y110681D01*
X228378Y114553D02*
X223090Y109265D01*
X228378Y114553D02*
X229848Y113083D01*
X224560Y107795D01*
X223090Y109265D01*
X224066Y108289D02*
X225054Y108289D01*
X225548Y108783D02*
X223572Y108783D01*
X223102Y109277D02*
X226042Y109277D01*
X226536Y109771D02*
X223596Y109771D01*
X224090Y110265D02*
X227030Y110265D01*
X227524Y110759D02*
X224584Y110759D01*
X225078Y111253D02*
X228018Y111253D01*
X228512Y111747D02*
X225572Y111747D01*
X226066Y112241D02*
X229006Y112241D01*
X229500Y112735D02*
X226560Y112735D01*
X227054Y113229D02*
X229702Y113229D01*
X229208Y113723D02*
X227548Y113723D01*
X228042Y114217D02*
X228714Y114217D01*
X224843Y118088D02*
X219555Y112800D01*
X224843Y118088D02*
X226313Y116618D01*
X221025Y111330D01*
X219555Y112800D01*
X220531Y111824D02*
X221519Y111824D01*
X222013Y112318D02*
X220037Y112318D01*
X219567Y112812D02*
X222507Y112812D01*
X223001Y113306D02*
X220061Y113306D01*
X220555Y113800D02*
X223495Y113800D01*
X223989Y114294D02*
X221049Y114294D01*
X221543Y114788D02*
X224483Y114788D01*
X224977Y115282D02*
X222037Y115282D01*
X222531Y115776D02*
X225471Y115776D01*
X225965Y116270D02*
X223025Y116270D01*
X223519Y116764D02*
X226167Y116764D01*
X225673Y117258D02*
X224013Y117258D01*
X224507Y117752D02*
X225179Y117752D01*
X221307Y121624D02*
X216019Y116336D01*
X221307Y121624D02*
X222777Y120154D01*
X217489Y114866D01*
X216019Y116336D01*
X216995Y115360D02*
X217983Y115360D01*
X218477Y115854D02*
X216501Y115854D01*
X216031Y116348D02*
X218971Y116348D01*
X219465Y116842D02*
X216525Y116842D01*
X217019Y117336D02*
X219959Y117336D01*
X220453Y117830D02*
X217513Y117830D01*
X218007Y118324D02*
X220947Y118324D01*
X221441Y118818D02*
X218501Y118818D01*
X218995Y119312D02*
X221935Y119312D01*
X222429Y119806D02*
X219489Y119806D01*
X219983Y120300D02*
X222631Y120300D01*
X222137Y120794D02*
X220477Y120794D01*
X220971Y121288D02*
X221643Y121288D01*
X217772Y125159D02*
X212484Y119871D01*
X217772Y125159D02*
X219242Y123689D01*
X213954Y118401D01*
X212484Y119871D01*
X213460Y118895D02*
X214448Y118895D01*
X214942Y119389D02*
X212966Y119389D01*
X212496Y119883D02*
X215436Y119883D01*
X215930Y120377D02*
X212990Y120377D01*
X213484Y120871D02*
X216424Y120871D01*
X216918Y121365D02*
X213978Y121365D01*
X214472Y121859D02*
X217412Y121859D01*
X217906Y122353D02*
X214966Y122353D01*
X215460Y122847D02*
X218400Y122847D01*
X218894Y123341D02*
X215954Y123341D01*
X216448Y123835D02*
X219096Y123835D01*
X218602Y124329D02*
X216942Y124329D01*
X217436Y124823D02*
X218108Y124823D01*
X214236Y128695D02*
X208948Y123407D01*
X214236Y128695D02*
X215706Y127225D01*
X210418Y121937D01*
X208948Y123407D01*
X209924Y122431D02*
X210912Y122431D01*
X211406Y122925D02*
X209430Y122925D01*
X208960Y123419D02*
X211900Y123419D01*
X212394Y123913D02*
X209454Y123913D01*
X209948Y124407D02*
X212888Y124407D01*
X213382Y124901D02*
X210442Y124901D01*
X210936Y125395D02*
X213876Y125395D01*
X214370Y125889D02*
X211430Y125889D01*
X211924Y126383D02*
X214864Y126383D01*
X215358Y126877D02*
X212418Y126877D01*
X212912Y127371D02*
X215560Y127371D01*
X215066Y127865D02*
X213406Y127865D01*
X213900Y128359D02*
X214572Y128359D01*
X210701Y132231D02*
X205413Y126943D01*
X210701Y132231D02*
X212171Y130761D01*
X206883Y125473D01*
X205413Y126943D01*
X206389Y125967D02*
X207377Y125967D01*
X207871Y126461D02*
X205895Y126461D01*
X205425Y126955D02*
X208365Y126955D01*
X208859Y127449D02*
X205919Y127449D01*
X206413Y127943D02*
X209353Y127943D01*
X209847Y128437D02*
X206907Y128437D01*
X207401Y128931D02*
X210341Y128931D01*
X210835Y129425D02*
X207895Y129425D01*
X208389Y129919D02*
X211329Y129919D01*
X211823Y130413D02*
X208883Y130413D01*
X209377Y130907D02*
X212025Y130907D01*
X211531Y131401D02*
X209871Y131401D01*
X210365Y131895D02*
X211037Y131895D01*
X207165Y135766D02*
X201877Y130478D01*
X207165Y135766D02*
X208635Y134296D01*
X203347Y129008D01*
X201877Y130478D01*
X202853Y129502D02*
X203841Y129502D01*
X204335Y129996D02*
X202359Y129996D01*
X201889Y130490D02*
X204829Y130490D01*
X205323Y130984D02*
X202383Y130984D01*
X202877Y131478D02*
X205817Y131478D01*
X206311Y131972D02*
X203371Y131972D01*
X203865Y132466D02*
X206805Y132466D01*
X207299Y132960D02*
X204359Y132960D01*
X204853Y133454D02*
X207793Y133454D01*
X208287Y133948D02*
X205347Y133948D01*
X205841Y134442D02*
X208489Y134442D01*
X207995Y134936D02*
X206335Y134936D01*
X206829Y135430D02*
X207501Y135430D01*
X197973Y129008D02*
X192685Y134296D01*
X194155Y135766D01*
X199443Y130478D01*
X197973Y129008D01*
X198467Y129502D02*
X197479Y129502D01*
X196985Y129996D02*
X198961Y129996D01*
X199431Y130490D02*
X196491Y130490D01*
X195997Y130984D02*
X198937Y130984D01*
X198443Y131478D02*
X195503Y131478D01*
X195009Y131972D02*
X197949Y131972D01*
X197455Y132466D02*
X194515Y132466D01*
X194021Y132960D02*
X196961Y132960D01*
X196467Y133454D02*
X193527Y133454D01*
X193033Y133948D02*
X195973Y133948D01*
X195479Y134442D02*
X192831Y134442D01*
X193325Y134936D02*
X194985Y134936D01*
X194491Y135430D02*
X193819Y135430D01*
X189149Y130761D02*
X194437Y125473D01*
X189149Y130761D02*
X190619Y132231D01*
X195907Y126943D01*
X194437Y125473D01*
X194931Y125967D02*
X193943Y125967D01*
X193449Y126461D02*
X195425Y126461D01*
X195895Y126955D02*
X192955Y126955D01*
X192461Y127449D02*
X195401Y127449D01*
X194907Y127943D02*
X191967Y127943D01*
X191473Y128437D02*
X194413Y128437D01*
X193919Y128931D02*
X190979Y128931D01*
X190485Y129425D02*
X193425Y129425D01*
X192931Y129919D02*
X189991Y129919D01*
X189497Y130413D02*
X192437Y130413D01*
X191943Y130907D02*
X189295Y130907D01*
X189789Y131401D02*
X191449Y131401D01*
X190955Y131895D02*
X190283Y131895D01*
X185614Y127225D02*
X190902Y121937D01*
X185614Y127225D02*
X187084Y128695D01*
X192372Y123407D01*
X190902Y121937D01*
X191396Y122431D02*
X190408Y122431D01*
X189914Y122925D02*
X191890Y122925D01*
X192360Y123419D02*
X189420Y123419D01*
X188926Y123913D02*
X191866Y123913D01*
X191372Y124407D02*
X188432Y124407D01*
X187938Y124901D02*
X190878Y124901D01*
X190384Y125395D02*
X187444Y125395D01*
X186950Y125889D02*
X189890Y125889D01*
X189396Y126383D02*
X186456Y126383D01*
X185962Y126877D02*
X188902Y126877D01*
X188408Y127371D02*
X185760Y127371D01*
X186254Y127865D02*
X187914Y127865D01*
X187420Y128359D02*
X186748Y128359D01*
X182078Y123689D02*
X187366Y118401D01*
X182078Y123689D02*
X183548Y125159D01*
X188836Y119871D01*
X187366Y118401D01*
X187860Y118895D02*
X186872Y118895D01*
X186378Y119389D02*
X188354Y119389D01*
X188824Y119883D02*
X185884Y119883D01*
X185390Y120377D02*
X188330Y120377D01*
X187836Y120871D02*
X184896Y120871D01*
X184402Y121365D02*
X187342Y121365D01*
X186848Y121859D02*
X183908Y121859D01*
X183414Y122353D02*
X186354Y122353D01*
X185860Y122847D02*
X182920Y122847D01*
X182426Y123341D02*
X185366Y123341D01*
X184872Y123835D02*
X182224Y123835D01*
X182718Y124329D02*
X184378Y124329D01*
X183884Y124823D02*
X183212Y124823D01*
X178543Y120154D02*
X183831Y114866D01*
X178543Y120154D02*
X180013Y121624D01*
X185301Y116336D01*
X183831Y114866D01*
X184325Y115360D02*
X183337Y115360D01*
X182843Y115854D02*
X184819Y115854D01*
X185289Y116348D02*
X182349Y116348D01*
X181855Y116842D02*
X184795Y116842D01*
X184301Y117336D02*
X181361Y117336D01*
X180867Y117830D02*
X183807Y117830D01*
X183313Y118324D02*
X180373Y118324D01*
X179879Y118818D02*
X182819Y118818D01*
X182325Y119312D02*
X179385Y119312D01*
X178891Y119806D02*
X181831Y119806D01*
X181337Y120300D02*
X178689Y120300D01*
X179183Y120794D02*
X180843Y120794D01*
X180349Y121288D02*
X179677Y121288D01*
X175007Y116618D02*
X180295Y111330D01*
X175007Y116618D02*
X176477Y118088D01*
X181765Y112800D01*
X180295Y111330D01*
X180789Y111824D02*
X179801Y111824D01*
X179307Y112318D02*
X181283Y112318D01*
X181753Y112812D02*
X178813Y112812D01*
X178319Y113306D02*
X181259Y113306D01*
X180765Y113800D02*
X177825Y113800D01*
X177331Y114294D02*
X180271Y114294D01*
X179777Y114788D02*
X176837Y114788D01*
X176343Y115282D02*
X179283Y115282D01*
X178789Y115776D02*
X175849Y115776D01*
X175355Y116270D02*
X178295Y116270D01*
X177801Y116764D02*
X175153Y116764D01*
X175647Y117258D02*
X177307Y117258D01*
X176813Y117752D02*
X176141Y117752D01*
X171472Y113083D02*
X176760Y107795D01*
X171472Y113083D02*
X172942Y114553D01*
X178230Y109265D01*
X176760Y107795D01*
X177254Y108289D02*
X176266Y108289D01*
X175772Y108783D02*
X177748Y108783D01*
X178218Y109277D02*
X175278Y109277D01*
X174784Y109771D02*
X177724Y109771D01*
X177230Y110265D02*
X174290Y110265D01*
X173796Y110759D02*
X176736Y110759D01*
X176242Y111253D02*
X173302Y111253D01*
X172808Y111747D02*
X175748Y111747D01*
X175254Y112241D02*
X172314Y112241D01*
X171820Y112735D02*
X174760Y112735D01*
X174266Y113229D02*
X171618Y113229D01*
X172112Y113723D02*
X173772Y113723D01*
X173278Y114217D02*
X172606Y114217D01*
X167936Y109547D02*
X173224Y104259D01*
X167936Y109547D02*
X169406Y111017D01*
X174694Y105729D01*
X173224Y104259D01*
X173718Y104753D02*
X172730Y104753D01*
X172236Y105247D02*
X174212Y105247D01*
X174682Y105741D02*
X171742Y105741D01*
X171248Y106235D02*
X174188Y106235D01*
X173694Y106729D02*
X170754Y106729D01*
X170260Y107223D02*
X173200Y107223D01*
X172706Y107717D02*
X169766Y107717D01*
X169272Y108211D02*
X172212Y108211D01*
X171718Y108705D02*
X168778Y108705D01*
X168284Y109199D02*
X171224Y109199D01*
X170730Y109693D02*
X168082Y109693D01*
X168576Y110187D02*
X170236Y110187D01*
X169742Y110681D02*
X169070Y110681D01*
X164401Y106012D02*
X169689Y100724D01*
X164401Y106012D02*
X165871Y107482D01*
X171159Y102194D01*
X169689Y100724D01*
X170183Y101218D02*
X169195Y101218D01*
X168701Y101712D02*
X170677Y101712D01*
X171147Y102206D02*
X168207Y102206D01*
X167713Y102700D02*
X170653Y102700D01*
X170159Y103194D02*
X167219Y103194D01*
X166725Y103688D02*
X169665Y103688D01*
X169171Y104182D02*
X166231Y104182D01*
X165737Y104676D02*
X168677Y104676D01*
X168183Y105170D02*
X165243Y105170D01*
X164749Y105664D02*
X167689Y105664D01*
X167195Y106158D02*
X164547Y106158D01*
X165041Y106652D02*
X166701Y106652D01*
X166207Y107146D02*
X165535Y107146D01*
X160865Y102476D02*
X166153Y97188D01*
X160865Y102476D02*
X162335Y103946D01*
X167623Y98658D01*
X166153Y97188D01*
X166647Y97682D02*
X165659Y97682D01*
X165165Y98176D02*
X167141Y98176D01*
X167611Y98670D02*
X164671Y98670D01*
X164177Y99164D02*
X167117Y99164D01*
X166623Y99658D02*
X163683Y99658D01*
X163189Y100152D02*
X166129Y100152D01*
X165635Y100646D02*
X162695Y100646D01*
X162201Y101140D02*
X165141Y101140D01*
X164647Y101634D02*
X161707Y101634D01*
X161213Y102128D02*
X164153Y102128D01*
X163659Y102622D02*
X161011Y102622D01*
X161505Y103116D02*
X163165Y103116D01*
X162671Y103610D02*
X161999Y103610D01*
X157329Y98941D02*
X162617Y93653D01*
X157329Y98941D02*
X158799Y100411D01*
X164087Y95123D01*
X162617Y93653D01*
X163111Y94147D02*
X162123Y94147D01*
X161629Y94641D02*
X163605Y94641D01*
X164075Y95135D02*
X161135Y95135D01*
X160641Y95629D02*
X163581Y95629D01*
X163087Y96123D02*
X160147Y96123D01*
X159653Y96617D02*
X162593Y96617D01*
X162099Y97111D02*
X159159Y97111D01*
X158665Y97605D02*
X161605Y97605D01*
X161111Y98099D02*
X158171Y98099D01*
X157677Y98593D02*
X160617Y98593D01*
X160123Y99087D02*
X157475Y99087D01*
X157969Y99581D02*
X159629Y99581D01*
X159135Y100075D02*
X158463Y100075D01*
X153794Y95405D02*
X159082Y90117D01*
X153794Y95405D02*
X155264Y96875D01*
X160552Y91587D01*
X159082Y90117D01*
X159576Y90611D02*
X158588Y90611D01*
X158094Y91105D02*
X160070Y91105D01*
X160540Y91599D02*
X157600Y91599D01*
X157106Y92093D02*
X160046Y92093D01*
X159552Y92587D02*
X156612Y92587D01*
X156118Y93081D02*
X159058Y93081D01*
X158564Y93575D02*
X155624Y93575D01*
X155130Y94069D02*
X158070Y94069D01*
X157576Y94563D02*
X154636Y94563D01*
X154142Y95057D02*
X157082Y95057D01*
X156588Y95551D02*
X153940Y95551D01*
X154434Y96045D02*
X156094Y96045D01*
X155600Y96539D02*
X154928Y96539D01*
X160552Y86213D02*
X155264Y80925D01*
X153794Y82395D01*
X159082Y87683D01*
X160552Y86213D01*
X155758Y81419D02*
X154770Y81419D01*
X154276Y81913D02*
X156252Y81913D01*
X156746Y82407D02*
X153806Y82407D01*
X154300Y82901D02*
X157240Y82901D01*
X157734Y83395D02*
X154794Y83395D01*
X155288Y83889D02*
X158228Y83889D01*
X158722Y84383D02*
X155782Y84383D01*
X156276Y84877D02*
X159216Y84877D01*
X159710Y85371D02*
X156770Y85371D01*
X157264Y85865D02*
X160204Y85865D01*
X160406Y86359D02*
X157758Y86359D01*
X158252Y86853D02*
X159912Y86853D01*
X159418Y87347D02*
X158746Y87347D01*
X164087Y82677D02*
X158799Y77389D01*
X157329Y78859D01*
X162617Y84147D01*
X164087Y82677D01*
X159293Y77883D02*
X158305Y77883D01*
X157811Y78377D02*
X159787Y78377D01*
X160281Y78871D02*
X157341Y78871D01*
X157835Y79365D02*
X160775Y79365D01*
X161269Y79859D02*
X158329Y79859D01*
X158823Y80353D02*
X161763Y80353D01*
X162257Y80847D02*
X159317Y80847D01*
X159811Y81341D02*
X162751Y81341D01*
X163245Y81835D02*
X160305Y81835D01*
X160799Y82329D02*
X163739Y82329D01*
X163941Y82823D02*
X161293Y82823D01*
X161787Y83317D02*
X163447Y83317D01*
X162953Y83811D02*
X162281Y83811D01*
X167623Y79142D02*
X162335Y73854D01*
X160865Y75324D01*
X166153Y80612D01*
X167623Y79142D01*
X162829Y74348D02*
X161841Y74348D01*
X161347Y74842D02*
X163323Y74842D01*
X163817Y75336D02*
X160877Y75336D01*
X161371Y75830D02*
X164311Y75830D01*
X164805Y76324D02*
X161865Y76324D01*
X162359Y76818D02*
X165299Y76818D01*
X165793Y77312D02*
X162853Y77312D01*
X163347Y77806D02*
X166287Y77806D01*
X166781Y78300D02*
X163841Y78300D01*
X164335Y78794D02*
X167275Y78794D01*
X167477Y79288D02*
X164829Y79288D01*
X165323Y79782D02*
X166983Y79782D01*
X166489Y80276D02*
X165817Y80276D01*
X171159Y75606D02*
X165871Y70318D01*
X164401Y71788D01*
X169689Y77076D01*
X171159Y75606D01*
X166365Y70812D02*
X165377Y70812D01*
X164883Y71306D02*
X166859Y71306D01*
X167353Y71800D02*
X164413Y71800D01*
X164907Y72294D02*
X167847Y72294D01*
X168341Y72788D02*
X165401Y72788D01*
X165895Y73282D02*
X168835Y73282D01*
X169329Y73776D02*
X166389Y73776D01*
X166883Y74270D02*
X169823Y74270D01*
X170317Y74764D02*
X167377Y74764D01*
X167871Y75258D02*
X170811Y75258D01*
X171013Y75752D02*
X168365Y75752D01*
X168859Y76246D02*
X170519Y76246D01*
X170025Y76740D02*
X169353Y76740D01*
X174694Y72071D02*
X169406Y66783D01*
X167936Y68253D01*
X173224Y73541D01*
X174694Y72071D01*
X169900Y67277D02*
X168912Y67277D01*
X168418Y67771D02*
X170394Y67771D01*
X170888Y68265D02*
X167948Y68265D01*
X168442Y68759D02*
X171382Y68759D01*
X171876Y69253D02*
X168936Y69253D01*
X169430Y69747D02*
X172370Y69747D01*
X172864Y70241D02*
X169924Y70241D01*
X170418Y70735D02*
X173358Y70735D01*
X173852Y71229D02*
X170912Y71229D01*
X171406Y71723D02*
X174346Y71723D01*
X174548Y72217D02*
X171900Y72217D01*
X172394Y72711D02*
X174054Y72711D01*
X173560Y73205D02*
X172888Y73205D01*
X178230Y68535D02*
X172942Y63247D01*
X171472Y64717D01*
X176760Y70005D01*
X178230Y68535D01*
X173436Y63741D02*
X172448Y63741D01*
X171954Y64235D02*
X173930Y64235D01*
X174424Y64729D02*
X171484Y64729D01*
X171978Y65223D02*
X174918Y65223D01*
X175412Y65717D02*
X172472Y65717D01*
X172966Y66211D02*
X175906Y66211D01*
X176400Y66705D02*
X173460Y66705D01*
X173954Y67199D02*
X176894Y67199D01*
X177388Y67693D02*
X174448Y67693D01*
X174942Y68187D02*
X177882Y68187D01*
X178084Y68681D02*
X175436Y68681D01*
X175930Y69175D02*
X177590Y69175D01*
X177096Y69669D02*
X176424Y69669D01*
X181765Y65000D02*
X176477Y59712D01*
X175007Y61182D01*
X180295Y66470D01*
X181765Y65000D01*
X176971Y60206D02*
X175983Y60206D01*
X175489Y60700D02*
X177465Y60700D01*
X177959Y61194D02*
X175019Y61194D01*
X175513Y61688D02*
X178453Y61688D01*
X178947Y62182D02*
X176007Y62182D01*
X176501Y62676D02*
X179441Y62676D01*
X179935Y63170D02*
X176995Y63170D01*
X177489Y63664D02*
X180429Y63664D01*
X180923Y64158D02*
X177983Y64158D01*
X178477Y64652D02*
X181417Y64652D01*
X181619Y65146D02*
X178971Y65146D01*
X179465Y65640D02*
X181125Y65640D01*
X180631Y66134D02*
X179959Y66134D01*
X185301Y61464D02*
X180013Y56176D01*
X178543Y57646D01*
X183831Y62934D01*
X185301Y61464D01*
X180507Y56670D02*
X179519Y56670D01*
X179025Y57164D02*
X181001Y57164D01*
X181495Y57658D02*
X178555Y57658D01*
X179049Y58152D02*
X181989Y58152D01*
X182483Y58646D02*
X179543Y58646D01*
X180037Y59140D02*
X182977Y59140D01*
X183471Y59634D02*
X180531Y59634D01*
X181025Y60128D02*
X183965Y60128D01*
X184459Y60622D02*
X181519Y60622D01*
X182013Y61116D02*
X184953Y61116D01*
X185155Y61610D02*
X182507Y61610D01*
X183001Y62104D02*
X184661Y62104D01*
X184167Y62598D02*
X183495Y62598D01*
X188836Y57929D02*
X183548Y52641D01*
X182078Y54111D01*
X187366Y59399D01*
X188836Y57929D01*
X184042Y53135D02*
X183054Y53135D01*
X182560Y53629D02*
X184536Y53629D01*
X185030Y54123D02*
X182090Y54123D01*
X182584Y54617D02*
X185524Y54617D01*
X186018Y55111D02*
X183078Y55111D01*
X183572Y55605D02*
X186512Y55605D01*
X187006Y56099D02*
X184066Y56099D01*
X184560Y56593D02*
X187500Y56593D01*
X187994Y57087D02*
X185054Y57087D01*
X185548Y57581D02*
X188488Y57581D01*
X188690Y58075D02*
X186042Y58075D01*
X186536Y58569D02*
X188196Y58569D01*
X187702Y59063D02*
X187030Y59063D01*
X192372Y54393D02*
X187084Y49105D01*
X185614Y50575D01*
X190902Y55863D01*
X192372Y54393D01*
X187578Y49599D02*
X186590Y49599D01*
X186096Y50093D02*
X188072Y50093D01*
X188566Y50587D02*
X185626Y50587D01*
X186120Y51081D02*
X189060Y51081D01*
X189554Y51575D02*
X186614Y51575D01*
X187108Y52069D02*
X190048Y52069D01*
X190542Y52563D02*
X187602Y52563D01*
X188096Y53057D02*
X191036Y53057D01*
X191530Y53551D02*
X188590Y53551D01*
X189084Y54045D02*
X192024Y54045D01*
X192226Y54539D02*
X189578Y54539D01*
X190072Y55033D02*
X191732Y55033D01*
X191238Y55527D02*
X190566Y55527D01*
X195907Y50857D02*
X190619Y45569D01*
X189149Y47039D01*
X194437Y52327D01*
X195907Y50857D01*
X191113Y46063D02*
X190125Y46063D01*
X189631Y46557D02*
X191607Y46557D01*
X192101Y47051D02*
X189161Y47051D01*
X189655Y47545D02*
X192595Y47545D01*
X193089Y48039D02*
X190149Y48039D01*
X190643Y48533D02*
X193583Y48533D01*
X194077Y49027D02*
X191137Y49027D01*
X191631Y49521D02*
X194571Y49521D01*
X195065Y50015D02*
X192125Y50015D01*
X192619Y50509D02*
X195559Y50509D01*
X195761Y51003D02*
X193113Y51003D01*
X193607Y51497D02*
X195267Y51497D01*
X194773Y51991D02*
X194101Y51991D01*
X199443Y47322D02*
X194155Y42034D01*
X192685Y43504D01*
X197973Y48792D01*
X199443Y47322D01*
X194649Y42528D02*
X193661Y42528D01*
X193167Y43022D02*
X195143Y43022D01*
X195637Y43516D02*
X192697Y43516D01*
X193191Y44010D02*
X196131Y44010D01*
X196625Y44504D02*
X193685Y44504D01*
X194179Y44998D02*
X197119Y44998D01*
X197613Y45492D02*
X194673Y45492D01*
X195167Y45986D02*
X198107Y45986D01*
X198601Y46480D02*
X195661Y46480D01*
X196155Y46974D02*
X199095Y46974D01*
X199297Y47468D02*
X196649Y47468D01*
X197143Y47962D02*
X198803Y47962D01*
X198309Y48456D02*
X197637Y48456D01*
X203347Y48792D02*
X208635Y43504D01*
X207165Y42034D01*
X201877Y47322D01*
X203347Y48792D01*
X206671Y42528D02*
X207659Y42528D01*
X208153Y43022D02*
X206177Y43022D01*
X205683Y43516D02*
X208623Y43516D01*
X208129Y44010D02*
X205189Y44010D01*
X204695Y44504D02*
X207635Y44504D01*
X207141Y44998D02*
X204201Y44998D01*
X203707Y45492D02*
X206647Y45492D01*
X206153Y45986D02*
X203213Y45986D01*
X202719Y46480D02*
X205659Y46480D01*
X205165Y46974D02*
X202225Y46974D01*
X202023Y47468D02*
X204671Y47468D01*
X204177Y47962D02*
X202517Y47962D01*
X203011Y48456D02*
X203683Y48456D01*
X206883Y52327D02*
X212171Y47039D01*
X210701Y45569D01*
X205413Y50857D01*
X206883Y52327D01*
X210207Y46063D02*
X211195Y46063D01*
X211689Y46557D02*
X209713Y46557D01*
X209219Y47051D02*
X212159Y47051D01*
X211665Y47545D02*
X208725Y47545D01*
X208231Y48039D02*
X211171Y48039D01*
X210677Y48533D02*
X207737Y48533D01*
X207243Y49027D02*
X210183Y49027D01*
X209689Y49521D02*
X206749Y49521D01*
X206255Y50015D02*
X209195Y50015D01*
X208701Y50509D02*
X205761Y50509D01*
X205559Y51003D02*
X208207Y51003D01*
X207713Y51497D02*
X206053Y51497D01*
X206547Y51991D02*
X207219Y51991D01*
X210418Y55863D02*
X215706Y50575D01*
X214236Y49105D01*
X208948Y54393D01*
X210418Y55863D01*
X213742Y49599D02*
X214730Y49599D01*
X215224Y50093D02*
X213248Y50093D01*
X212754Y50587D02*
X215694Y50587D01*
X215200Y51081D02*
X212260Y51081D01*
X211766Y51575D02*
X214706Y51575D01*
X214212Y52069D02*
X211272Y52069D01*
X210778Y52563D02*
X213718Y52563D01*
X213224Y53057D02*
X210284Y53057D01*
X209790Y53551D02*
X212730Y53551D01*
X212236Y54045D02*
X209296Y54045D01*
X209094Y54539D02*
X211742Y54539D01*
X211248Y55033D02*
X209588Y55033D01*
X210082Y55527D02*
X210754Y55527D01*
X213954Y59399D02*
X219242Y54111D01*
X217772Y52641D01*
X212484Y57929D01*
X213954Y59399D01*
X217278Y53135D02*
X218266Y53135D01*
X218760Y53629D02*
X216784Y53629D01*
X216290Y54123D02*
X219230Y54123D01*
X218736Y54617D02*
X215796Y54617D01*
X215302Y55111D02*
X218242Y55111D01*
X217748Y55605D02*
X214808Y55605D01*
X214314Y56099D02*
X217254Y56099D01*
X216760Y56593D02*
X213820Y56593D01*
X213326Y57087D02*
X216266Y57087D01*
X215772Y57581D02*
X212832Y57581D01*
X212630Y58075D02*
X215278Y58075D01*
X214784Y58569D02*
X213124Y58569D01*
X213618Y59063D02*
X214290Y59063D01*
X217489Y62934D02*
X222777Y57646D01*
X221307Y56176D01*
X216019Y61464D01*
X217489Y62934D01*
X220813Y56670D02*
X221801Y56670D01*
X222295Y57164D02*
X220319Y57164D01*
X219825Y57658D02*
X222765Y57658D01*
X222271Y58152D02*
X219331Y58152D01*
X218837Y58646D02*
X221777Y58646D01*
X221283Y59140D02*
X218343Y59140D01*
X217849Y59634D02*
X220789Y59634D01*
X220295Y60128D02*
X217355Y60128D01*
X216861Y60622D02*
X219801Y60622D01*
X219307Y61116D02*
X216367Y61116D01*
X216165Y61610D02*
X218813Y61610D01*
X218319Y62104D02*
X216659Y62104D01*
X217153Y62598D02*
X217825Y62598D01*
X221025Y66470D02*
X226313Y61182D01*
X224843Y59712D01*
X219555Y65000D01*
X221025Y66470D01*
X224349Y60206D02*
X225337Y60206D01*
X225831Y60700D02*
X223855Y60700D01*
X223361Y61194D02*
X226301Y61194D01*
X225807Y61688D02*
X222867Y61688D01*
X222373Y62182D02*
X225313Y62182D01*
X224819Y62676D02*
X221879Y62676D01*
X221385Y63170D02*
X224325Y63170D01*
X223831Y63664D02*
X220891Y63664D01*
X220397Y64158D02*
X223337Y64158D01*
X222843Y64652D02*
X219903Y64652D01*
X219701Y65146D02*
X222349Y65146D01*
X221855Y65640D02*
X220195Y65640D01*
X220689Y66134D02*
X221361Y66134D01*
X224560Y70005D02*
X229848Y64717D01*
X228378Y63247D01*
X223090Y68535D01*
X224560Y70005D01*
X227884Y63741D02*
X228872Y63741D01*
X229366Y64235D02*
X227390Y64235D01*
X226896Y64729D02*
X229836Y64729D01*
X229342Y65223D02*
X226402Y65223D01*
X225908Y65717D02*
X228848Y65717D01*
X228354Y66211D02*
X225414Y66211D01*
X224920Y66705D02*
X227860Y66705D01*
X227366Y67199D02*
X224426Y67199D01*
X223932Y67693D02*
X226872Y67693D01*
X226378Y68187D02*
X223438Y68187D01*
X223236Y68681D02*
X225884Y68681D01*
X225390Y69175D02*
X223730Y69175D01*
X224224Y69669D02*
X224896Y69669D01*
X228096Y73541D02*
X233384Y68253D01*
X231914Y66783D01*
X226626Y72071D01*
X228096Y73541D01*
X231420Y67277D02*
X232408Y67277D01*
X232902Y67771D02*
X230926Y67771D01*
X230432Y68265D02*
X233372Y68265D01*
X232878Y68759D02*
X229938Y68759D01*
X229444Y69253D02*
X232384Y69253D01*
X231890Y69747D02*
X228950Y69747D01*
X228456Y70241D02*
X231396Y70241D01*
X230902Y70735D02*
X227962Y70735D01*
X227468Y71229D02*
X230408Y71229D01*
X229914Y71723D02*
X226974Y71723D01*
X226772Y72217D02*
X229420Y72217D01*
X228926Y72711D02*
X227266Y72711D01*
X227760Y73205D02*
X228432Y73205D01*
X231631Y77076D02*
X236919Y71788D01*
X235449Y70318D01*
X230161Y75606D01*
X231631Y77076D01*
X234955Y70812D02*
X235943Y70812D01*
X236437Y71306D02*
X234461Y71306D01*
X233967Y71800D02*
X236907Y71800D01*
X236413Y72294D02*
X233473Y72294D01*
X232979Y72788D02*
X235919Y72788D01*
X235425Y73282D02*
X232485Y73282D01*
X231991Y73776D02*
X234931Y73776D01*
X234437Y74270D02*
X231497Y74270D01*
X231003Y74764D02*
X233943Y74764D01*
X233449Y75258D02*
X230509Y75258D01*
X230307Y75752D02*
X232955Y75752D01*
X232461Y76246D02*
X230801Y76246D01*
X231295Y76740D02*
X231967Y76740D01*
X235167Y80612D02*
X240455Y75324D01*
X238985Y73854D01*
X233697Y79142D01*
X235167Y80612D01*
X238491Y74348D02*
X239479Y74348D01*
X239973Y74842D02*
X237997Y74842D01*
X237503Y75336D02*
X240443Y75336D01*
X239949Y75830D02*
X237009Y75830D01*
X236515Y76324D02*
X239455Y76324D01*
X238961Y76818D02*
X236021Y76818D01*
X235527Y77312D02*
X238467Y77312D01*
X237973Y77806D02*
X235033Y77806D01*
X234539Y78300D02*
X237479Y78300D01*
X236985Y78794D02*
X234045Y78794D01*
X233843Y79288D02*
X236491Y79288D01*
X235997Y79782D02*
X234337Y79782D01*
X234831Y80276D02*
X235503Y80276D01*
X238703Y84147D02*
X243991Y78859D01*
X242521Y77389D01*
X237233Y82677D01*
X238703Y84147D01*
X242027Y77883D02*
X243015Y77883D01*
X243509Y78377D02*
X241533Y78377D01*
X241039Y78871D02*
X243979Y78871D01*
X243485Y79365D02*
X240545Y79365D01*
X240051Y79859D02*
X242991Y79859D01*
X242497Y80353D02*
X239557Y80353D01*
X239063Y80847D02*
X242003Y80847D01*
X241509Y81341D02*
X238569Y81341D01*
X238075Y81835D02*
X241015Y81835D01*
X240521Y82329D02*
X237581Y82329D01*
X237379Y82823D02*
X240027Y82823D01*
X239533Y83317D02*
X237873Y83317D01*
X238367Y83811D02*
X239039Y83811D01*
X242238Y87683D02*
X247526Y82395D01*
X246056Y80925D01*
X240768Y86213D01*
X242238Y87683D01*
X245562Y81419D02*
X246550Y81419D01*
X247044Y81913D02*
X245068Y81913D01*
X244574Y82407D02*
X247514Y82407D01*
X247020Y82901D02*
X244080Y82901D01*
X243586Y83395D02*
X246526Y83395D01*
X246032Y83889D02*
X243092Y83889D01*
X242598Y84383D02*
X245538Y84383D01*
X245044Y84877D02*
X242104Y84877D01*
X241610Y85371D02*
X244550Y85371D01*
X244056Y85865D02*
X241116Y85865D01*
X240914Y86359D02*
X243562Y86359D01*
X243068Y86853D02*
X241408Y86853D01*
X241902Y87347D02*
X242574Y87347D01*
D15*
G36*
X216217Y88900D02*
X222580Y95263D01*
X228943Y88900D01*
X222580Y82537D01*
X216217Y88900D01*
G37*
G36*
X194297Y66980D02*
X200660Y73343D01*
X207023Y66980D01*
X200660Y60617D01*
X194297Y66980D01*
G37*
G36*
X172377Y88900D02*
X178740Y95263D01*
X185103Y88900D01*
X178740Y82537D01*
X172377Y88900D01*
G37*
G36*
X194297Y110820D02*
X200660Y117183D01*
X207023Y110820D01*
X200660Y104457D01*
X194297Y110820D01*
G37*
D16*
G36*
X192175Y88900D02*
X200660Y97385D01*
X209145Y88900D01*
X200660Y80415D01*
X192175Y88900D01*
G37*
D14*
X350844Y80925D02*
X356132Y86213D01*
X350844Y80925D02*
X349374Y82395D01*
X354662Y87683D01*
X356132Y86213D01*
X351338Y81419D02*
X350350Y81419D01*
X349856Y81913D02*
X351832Y81913D01*
X352326Y82407D02*
X349386Y82407D01*
X349880Y82901D02*
X352820Y82901D01*
X353314Y83395D02*
X350374Y83395D01*
X350868Y83889D02*
X353808Y83889D01*
X354302Y84383D02*
X351362Y84383D01*
X351856Y84877D02*
X354796Y84877D01*
X355290Y85371D02*
X352350Y85371D01*
X352844Y85865D02*
X355784Y85865D01*
X355986Y86359D02*
X353338Y86359D01*
X353832Y86853D02*
X355492Y86853D01*
X354998Y87347D02*
X354326Y87347D01*
X359667Y82677D02*
X354379Y77389D01*
X352909Y78859D01*
X358197Y84147D01*
X359667Y82677D01*
X354873Y77883D02*
X353885Y77883D01*
X353391Y78377D02*
X355367Y78377D01*
X355861Y78871D02*
X352921Y78871D01*
X353415Y79365D02*
X356355Y79365D01*
X356849Y79859D02*
X353909Y79859D01*
X354403Y80353D02*
X357343Y80353D01*
X357837Y80847D02*
X354897Y80847D01*
X355391Y81341D02*
X358331Y81341D01*
X358825Y81835D02*
X355885Y81835D01*
X356379Y82329D02*
X359319Y82329D01*
X359521Y82823D02*
X356873Y82823D01*
X357367Y83317D02*
X359027Y83317D01*
X358533Y83811D02*
X357861Y83811D01*
X363203Y79142D02*
X357915Y73854D01*
X356445Y75324D01*
X361733Y80612D01*
X363203Y79142D01*
X358409Y74348D02*
X357421Y74348D01*
X356927Y74842D02*
X358903Y74842D01*
X359397Y75336D02*
X356457Y75336D01*
X356951Y75830D02*
X359891Y75830D01*
X360385Y76324D02*
X357445Y76324D01*
X357939Y76818D02*
X360879Y76818D01*
X361373Y77312D02*
X358433Y77312D01*
X358927Y77806D02*
X361867Y77806D01*
X362361Y78300D02*
X359421Y78300D01*
X359915Y78794D02*
X362855Y78794D01*
X363057Y79288D02*
X360409Y79288D01*
X360903Y79782D02*
X362563Y79782D01*
X362069Y80276D02*
X361397Y80276D01*
X366739Y75606D02*
X361451Y70318D01*
X359981Y71788D01*
X365269Y77076D01*
X366739Y75606D01*
X361945Y70812D02*
X360957Y70812D01*
X360463Y71306D02*
X362439Y71306D01*
X362933Y71800D02*
X359993Y71800D01*
X360487Y72294D02*
X363427Y72294D01*
X363921Y72788D02*
X360981Y72788D01*
X361475Y73282D02*
X364415Y73282D01*
X364909Y73776D02*
X361969Y73776D01*
X362463Y74270D02*
X365403Y74270D01*
X365897Y74764D02*
X362957Y74764D01*
X363451Y75258D02*
X366391Y75258D01*
X366593Y75752D02*
X363945Y75752D01*
X364439Y76246D02*
X366099Y76246D01*
X365605Y76740D02*
X364933Y76740D01*
X370274Y72071D02*
X364986Y66783D01*
X363516Y68253D01*
X368804Y73541D01*
X370274Y72071D01*
X365480Y67277D02*
X364492Y67277D01*
X363998Y67771D02*
X365974Y67771D01*
X366468Y68265D02*
X363528Y68265D01*
X364022Y68759D02*
X366962Y68759D01*
X367456Y69253D02*
X364516Y69253D01*
X365010Y69747D02*
X367950Y69747D01*
X368444Y70241D02*
X365504Y70241D01*
X365998Y70735D02*
X368938Y70735D01*
X369432Y71229D02*
X366492Y71229D01*
X366986Y71723D02*
X369926Y71723D01*
X370128Y72217D02*
X367480Y72217D01*
X367974Y72711D02*
X369634Y72711D01*
X369140Y73205D02*
X368468Y73205D01*
X373810Y68535D02*
X368522Y63247D01*
X367052Y64717D01*
X372340Y70005D01*
X373810Y68535D01*
X369016Y63741D02*
X368028Y63741D01*
X367534Y64235D02*
X369510Y64235D01*
X370004Y64729D02*
X367064Y64729D01*
X367558Y65223D02*
X370498Y65223D01*
X370992Y65717D02*
X368052Y65717D01*
X368546Y66211D02*
X371486Y66211D01*
X371980Y66705D02*
X369040Y66705D01*
X369534Y67199D02*
X372474Y67199D01*
X372968Y67693D02*
X370028Y67693D01*
X370522Y68187D02*
X373462Y68187D01*
X373664Y68681D02*
X371016Y68681D01*
X371510Y69175D02*
X373170Y69175D01*
X372676Y69669D02*
X372004Y69669D01*
X377345Y65000D02*
X372057Y59712D01*
X370587Y61182D01*
X375875Y66470D01*
X377345Y65000D01*
X372551Y60206D02*
X371563Y60206D01*
X371069Y60700D02*
X373045Y60700D01*
X373539Y61194D02*
X370599Y61194D01*
X371093Y61688D02*
X374033Y61688D01*
X374527Y62182D02*
X371587Y62182D01*
X372081Y62676D02*
X375021Y62676D01*
X375515Y63170D02*
X372575Y63170D01*
X373069Y63664D02*
X376009Y63664D01*
X376503Y64158D02*
X373563Y64158D01*
X374057Y64652D02*
X376997Y64652D01*
X377199Y65146D02*
X374551Y65146D01*
X375045Y65640D02*
X376705Y65640D01*
X376211Y66134D02*
X375539Y66134D01*
X380881Y61464D02*
X375593Y56176D01*
X374123Y57646D01*
X379411Y62934D01*
X380881Y61464D01*
X376087Y56670D02*
X375099Y56670D01*
X374605Y57164D02*
X376581Y57164D01*
X377075Y57658D02*
X374135Y57658D01*
X374629Y58152D02*
X377569Y58152D01*
X378063Y58646D02*
X375123Y58646D01*
X375617Y59140D02*
X378557Y59140D01*
X379051Y59634D02*
X376111Y59634D01*
X376605Y60128D02*
X379545Y60128D01*
X380039Y60622D02*
X377099Y60622D01*
X377593Y61116D02*
X380533Y61116D01*
X380735Y61610D02*
X378087Y61610D01*
X378581Y62104D02*
X380241Y62104D01*
X379747Y62598D02*
X379075Y62598D01*
X384416Y57929D02*
X379128Y52641D01*
X377658Y54111D01*
X382946Y59399D01*
X384416Y57929D01*
X379622Y53135D02*
X378634Y53135D01*
X378140Y53629D02*
X380116Y53629D01*
X380610Y54123D02*
X377670Y54123D01*
X378164Y54617D02*
X381104Y54617D01*
X381598Y55111D02*
X378658Y55111D01*
X379152Y55605D02*
X382092Y55605D01*
X382586Y56099D02*
X379646Y56099D01*
X380140Y56593D02*
X383080Y56593D01*
X383574Y57087D02*
X380634Y57087D01*
X381128Y57581D02*
X384068Y57581D01*
X384270Y58075D02*
X381622Y58075D01*
X382116Y58569D02*
X383776Y58569D01*
X383282Y59063D02*
X382610Y59063D01*
X387952Y54393D02*
X382664Y49105D01*
X381194Y50575D01*
X386482Y55863D01*
X387952Y54393D01*
X383158Y49599D02*
X382170Y49599D01*
X381676Y50093D02*
X383652Y50093D01*
X384146Y50587D02*
X381206Y50587D01*
X381700Y51081D02*
X384640Y51081D01*
X385134Y51575D02*
X382194Y51575D01*
X382688Y52069D02*
X385628Y52069D01*
X386122Y52563D02*
X383182Y52563D01*
X383676Y53057D02*
X386616Y53057D01*
X387110Y53551D02*
X384170Y53551D01*
X384664Y54045D02*
X387604Y54045D01*
X387806Y54539D02*
X385158Y54539D01*
X385652Y55033D02*
X387312Y55033D01*
X386818Y55527D02*
X386146Y55527D01*
X391487Y50857D02*
X386199Y45569D01*
X384729Y47039D01*
X390017Y52327D01*
X391487Y50857D01*
X386693Y46063D02*
X385705Y46063D01*
X385211Y46557D02*
X387187Y46557D01*
X387681Y47051D02*
X384741Y47051D01*
X385235Y47545D02*
X388175Y47545D01*
X388669Y48039D02*
X385729Y48039D01*
X386223Y48533D02*
X389163Y48533D01*
X389657Y49027D02*
X386717Y49027D01*
X387211Y49521D02*
X390151Y49521D01*
X390645Y50015D02*
X387705Y50015D01*
X388199Y50509D02*
X391139Y50509D01*
X391341Y51003D02*
X388693Y51003D01*
X389187Y51497D02*
X390847Y51497D01*
X390353Y51991D02*
X389681Y51991D01*
X395023Y47322D02*
X389735Y42034D01*
X388265Y43504D01*
X393553Y48792D01*
X395023Y47322D01*
X390229Y42528D02*
X389241Y42528D01*
X388747Y43022D02*
X390723Y43022D01*
X391217Y43516D02*
X388277Y43516D01*
X388771Y44010D02*
X391711Y44010D01*
X392205Y44504D02*
X389265Y44504D01*
X389759Y44998D02*
X392699Y44998D01*
X393193Y45492D02*
X390253Y45492D01*
X390747Y45986D02*
X393687Y45986D01*
X394181Y46480D02*
X391241Y46480D01*
X391735Y46974D02*
X394675Y46974D01*
X394877Y47468D02*
X392229Y47468D01*
X392723Y47962D02*
X394383Y47962D01*
X393889Y48456D02*
X393217Y48456D01*
X398927Y48792D02*
X404215Y43504D01*
X402745Y42034D01*
X397457Y47322D01*
X398927Y48792D01*
X402251Y42528D02*
X403239Y42528D01*
X403733Y43022D02*
X401757Y43022D01*
X401263Y43516D02*
X404203Y43516D01*
X403709Y44010D02*
X400769Y44010D01*
X400275Y44504D02*
X403215Y44504D01*
X402721Y44998D02*
X399781Y44998D01*
X399287Y45492D02*
X402227Y45492D01*
X401733Y45986D02*
X398793Y45986D01*
X398299Y46480D02*
X401239Y46480D01*
X400745Y46974D02*
X397805Y46974D01*
X397603Y47468D02*
X400251Y47468D01*
X399757Y47962D02*
X398097Y47962D01*
X398591Y48456D02*
X399263Y48456D01*
X402463Y52327D02*
X407751Y47039D01*
X406281Y45569D01*
X400993Y50857D01*
X402463Y52327D01*
X405787Y46063D02*
X406775Y46063D01*
X407269Y46557D02*
X405293Y46557D01*
X404799Y47051D02*
X407739Y47051D01*
X407245Y47545D02*
X404305Y47545D01*
X403811Y48039D02*
X406751Y48039D01*
X406257Y48533D02*
X403317Y48533D01*
X402823Y49027D02*
X405763Y49027D01*
X405269Y49521D02*
X402329Y49521D01*
X401835Y50015D02*
X404775Y50015D01*
X404281Y50509D02*
X401341Y50509D01*
X401139Y51003D02*
X403787Y51003D01*
X403293Y51497D02*
X401633Y51497D01*
X402127Y51991D02*
X402799Y51991D01*
X405998Y55863D02*
X411286Y50575D01*
X409816Y49105D01*
X404528Y54393D01*
X405998Y55863D01*
X409322Y49599D02*
X410310Y49599D01*
X410804Y50093D02*
X408828Y50093D01*
X408334Y50587D02*
X411274Y50587D01*
X410780Y51081D02*
X407840Y51081D01*
X407346Y51575D02*
X410286Y51575D01*
X409792Y52069D02*
X406852Y52069D01*
X406358Y52563D02*
X409298Y52563D01*
X408804Y53057D02*
X405864Y53057D01*
X405370Y53551D02*
X408310Y53551D01*
X407816Y54045D02*
X404876Y54045D01*
X404674Y54539D02*
X407322Y54539D01*
X406828Y55033D02*
X405168Y55033D01*
X405662Y55527D02*
X406334Y55527D01*
X409534Y59399D02*
X414822Y54111D01*
X413352Y52641D01*
X408064Y57929D01*
X409534Y59399D01*
X412858Y53135D02*
X413846Y53135D01*
X414340Y53629D02*
X412364Y53629D01*
X411870Y54123D02*
X414810Y54123D01*
X414316Y54617D02*
X411376Y54617D01*
X410882Y55111D02*
X413822Y55111D01*
X413328Y55605D02*
X410388Y55605D01*
X409894Y56099D02*
X412834Y56099D01*
X412340Y56593D02*
X409400Y56593D01*
X408906Y57087D02*
X411846Y57087D01*
X411352Y57581D02*
X408412Y57581D01*
X408210Y58075D02*
X410858Y58075D01*
X410364Y58569D02*
X408704Y58569D01*
X409198Y59063D02*
X409870Y59063D01*
X413069Y62934D02*
X418357Y57646D01*
X416887Y56176D01*
X411599Y61464D01*
X413069Y62934D01*
X416393Y56670D02*
X417381Y56670D01*
X417875Y57164D02*
X415899Y57164D01*
X415405Y57658D02*
X418345Y57658D01*
X417851Y58152D02*
X414911Y58152D01*
X414417Y58646D02*
X417357Y58646D01*
X416863Y59140D02*
X413923Y59140D01*
X413429Y59634D02*
X416369Y59634D01*
X415875Y60128D02*
X412935Y60128D01*
X412441Y60622D02*
X415381Y60622D01*
X414887Y61116D02*
X411947Y61116D01*
X411745Y61610D02*
X414393Y61610D01*
X413899Y62104D02*
X412239Y62104D01*
X412733Y62598D02*
X413405Y62598D01*
X416605Y66470D02*
X421893Y61182D01*
X420423Y59712D01*
X415135Y65000D01*
X416605Y66470D01*
X419929Y60206D02*
X420917Y60206D01*
X421411Y60700D02*
X419435Y60700D01*
X418941Y61194D02*
X421881Y61194D01*
X421387Y61688D02*
X418447Y61688D01*
X417953Y62182D02*
X420893Y62182D01*
X420399Y62676D02*
X417459Y62676D01*
X416965Y63170D02*
X419905Y63170D01*
X419411Y63664D02*
X416471Y63664D01*
X415977Y64158D02*
X418917Y64158D01*
X418423Y64652D02*
X415483Y64652D01*
X415281Y65146D02*
X417929Y65146D01*
X417435Y65640D02*
X415775Y65640D01*
X416269Y66134D02*
X416941Y66134D01*
X420140Y70005D02*
X425428Y64717D01*
X423958Y63247D01*
X418670Y68535D01*
X420140Y70005D01*
X423464Y63741D02*
X424452Y63741D01*
X424946Y64235D02*
X422970Y64235D01*
X422476Y64729D02*
X425416Y64729D01*
X424922Y65223D02*
X421982Y65223D01*
X421488Y65717D02*
X424428Y65717D01*
X423934Y66211D02*
X420994Y66211D01*
X420500Y66705D02*
X423440Y66705D01*
X422946Y67199D02*
X420006Y67199D01*
X419512Y67693D02*
X422452Y67693D01*
X421958Y68187D02*
X419018Y68187D01*
X418816Y68681D02*
X421464Y68681D01*
X420970Y69175D02*
X419310Y69175D01*
X419804Y69669D02*
X420476Y69669D01*
X423676Y73541D02*
X428964Y68253D01*
X427494Y66783D01*
X422206Y72071D01*
X423676Y73541D01*
X427000Y67277D02*
X427988Y67277D01*
X428482Y67771D02*
X426506Y67771D01*
X426012Y68265D02*
X428952Y68265D01*
X428458Y68759D02*
X425518Y68759D01*
X425024Y69253D02*
X427964Y69253D01*
X427470Y69747D02*
X424530Y69747D01*
X424036Y70241D02*
X426976Y70241D01*
X426482Y70735D02*
X423542Y70735D01*
X423048Y71229D02*
X425988Y71229D01*
X425494Y71723D02*
X422554Y71723D01*
X422352Y72217D02*
X425000Y72217D01*
X424506Y72711D02*
X422846Y72711D01*
X423340Y73205D02*
X424012Y73205D01*
X427211Y77076D02*
X432499Y71788D01*
X431029Y70318D01*
X425741Y75606D01*
X427211Y77076D01*
X430535Y70812D02*
X431523Y70812D01*
X432017Y71306D02*
X430041Y71306D01*
X429547Y71800D02*
X432487Y71800D01*
X431993Y72294D02*
X429053Y72294D01*
X428559Y72788D02*
X431499Y72788D01*
X431005Y73282D02*
X428065Y73282D01*
X427571Y73776D02*
X430511Y73776D01*
X430017Y74270D02*
X427077Y74270D01*
X426583Y74764D02*
X429523Y74764D01*
X429029Y75258D02*
X426089Y75258D01*
X425887Y75752D02*
X428535Y75752D01*
X428041Y76246D02*
X426381Y76246D01*
X426875Y76740D02*
X427547Y76740D01*
X430747Y80612D02*
X436035Y75324D01*
X434565Y73854D01*
X429277Y79142D01*
X430747Y80612D01*
X434071Y74348D02*
X435059Y74348D01*
X435553Y74842D02*
X433577Y74842D01*
X433083Y75336D02*
X436023Y75336D01*
X435529Y75830D02*
X432589Y75830D01*
X432095Y76324D02*
X435035Y76324D01*
X434541Y76818D02*
X431601Y76818D01*
X431107Y77312D02*
X434047Y77312D01*
X433553Y77806D02*
X430613Y77806D01*
X430119Y78300D02*
X433059Y78300D01*
X432565Y78794D02*
X429625Y78794D01*
X429423Y79288D02*
X432071Y79288D01*
X431577Y79782D02*
X429917Y79782D01*
X430411Y80276D02*
X431083Y80276D01*
X434283Y84147D02*
X439571Y78859D01*
X438101Y77389D01*
X432813Y82677D01*
X434283Y84147D01*
X437607Y77883D02*
X438595Y77883D01*
X439089Y78377D02*
X437113Y78377D01*
X436619Y78871D02*
X439559Y78871D01*
X439065Y79365D02*
X436125Y79365D01*
X435631Y79859D02*
X438571Y79859D01*
X438077Y80353D02*
X435137Y80353D01*
X434643Y80847D02*
X437583Y80847D01*
X437089Y81341D02*
X434149Y81341D01*
X433655Y81835D02*
X436595Y81835D01*
X436101Y82329D02*
X433161Y82329D01*
X432959Y82823D02*
X435607Y82823D01*
X435113Y83317D02*
X433453Y83317D01*
X433947Y83811D02*
X434619Y83811D01*
X437818Y87683D02*
X443106Y82395D01*
X441636Y80925D01*
X436348Y86213D01*
X437818Y87683D01*
X441142Y81419D02*
X442130Y81419D01*
X442624Y81913D02*
X440648Y81913D01*
X440154Y82407D02*
X443094Y82407D01*
X442600Y82901D02*
X439660Y82901D01*
X439166Y83395D02*
X442106Y83395D01*
X441612Y83889D02*
X438672Y83889D01*
X438178Y84383D02*
X441118Y84383D01*
X440624Y84877D02*
X437684Y84877D01*
X437190Y85371D02*
X440130Y85371D01*
X439636Y85865D02*
X436696Y85865D01*
X436494Y86359D02*
X439142Y86359D01*
X438648Y86853D02*
X436988Y86853D01*
X437482Y87347D02*
X438154Y87347D01*
X436348Y91587D02*
X441636Y96875D01*
X443106Y95405D01*
X437818Y90117D01*
X436348Y91587D01*
X437324Y90611D02*
X438312Y90611D01*
X438806Y91105D02*
X436830Y91105D01*
X436360Y91599D02*
X439300Y91599D01*
X439794Y92093D02*
X436854Y92093D01*
X437348Y92587D02*
X440288Y92587D01*
X440782Y93081D02*
X437842Y93081D01*
X438336Y93575D02*
X441276Y93575D01*
X441770Y94069D02*
X438830Y94069D01*
X439324Y94563D02*
X442264Y94563D01*
X442758Y95057D02*
X439818Y95057D01*
X440312Y95551D02*
X442960Y95551D01*
X442466Y96045D02*
X440806Y96045D01*
X441300Y96539D02*
X441972Y96539D01*
X438101Y100411D02*
X432813Y95123D01*
X438101Y100411D02*
X439571Y98941D01*
X434283Y93653D01*
X432813Y95123D01*
X433789Y94147D02*
X434777Y94147D01*
X435271Y94641D02*
X433295Y94641D01*
X432825Y95135D02*
X435765Y95135D01*
X436259Y95629D02*
X433319Y95629D01*
X433813Y96123D02*
X436753Y96123D01*
X437247Y96617D02*
X434307Y96617D01*
X434801Y97111D02*
X437741Y97111D01*
X438235Y97605D02*
X435295Y97605D01*
X435789Y98099D02*
X438729Y98099D01*
X439223Y98593D02*
X436283Y98593D01*
X436777Y99087D02*
X439425Y99087D01*
X438931Y99581D02*
X437271Y99581D01*
X437765Y100075D02*
X438437Y100075D01*
X434565Y103946D02*
X429277Y98658D01*
X434565Y103946D02*
X436035Y102476D01*
X430747Y97188D01*
X429277Y98658D01*
X430253Y97682D02*
X431241Y97682D01*
X431735Y98176D02*
X429759Y98176D01*
X429289Y98670D02*
X432229Y98670D01*
X432723Y99164D02*
X429783Y99164D01*
X430277Y99658D02*
X433217Y99658D01*
X433711Y100152D02*
X430771Y100152D01*
X431265Y100646D02*
X434205Y100646D01*
X434699Y101140D02*
X431759Y101140D01*
X432253Y101634D02*
X435193Y101634D01*
X435687Y102128D02*
X432747Y102128D01*
X433241Y102622D02*
X435889Y102622D01*
X435395Y103116D02*
X433735Y103116D01*
X434229Y103610D02*
X434901Y103610D01*
X431029Y107482D02*
X425741Y102194D01*
X431029Y107482D02*
X432499Y106012D01*
X427211Y100724D01*
X425741Y102194D01*
X426717Y101218D02*
X427705Y101218D01*
X428199Y101712D02*
X426223Y101712D01*
X425753Y102206D02*
X428693Y102206D01*
X429187Y102700D02*
X426247Y102700D01*
X426741Y103194D02*
X429681Y103194D01*
X430175Y103688D02*
X427235Y103688D01*
X427729Y104182D02*
X430669Y104182D01*
X431163Y104676D02*
X428223Y104676D01*
X428717Y105170D02*
X431657Y105170D01*
X432151Y105664D02*
X429211Y105664D01*
X429705Y106158D02*
X432353Y106158D01*
X431859Y106652D02*
X430199Y106652D01*
X430693Y107146D02*
X431365Y107146D01*
X427494Y111017D02*
X422206Y105729D01*
X427494Y111017D02*
X428964Y109547D01*
X423676Y104259D01*
X422206Y105729D01*
X423182Y104753D02*
X424170Y104753D01*
X424664Y105247D02*
X422688Y105247D01*
X422218Y105741D02*
X425158Y105741D01*
X425652Y106235D02*
X422712Y106235D01*
X423206Y106729D02*
X426146Y106729D01*
X426640Y107223D02*
X423700Y107223D01*
X424194Y107717D02*
X427134Y107717D01*
X427628Y108211D02*
X424688Y108211D01*
X425182Y108705D02*
X428122Y108705D01*
X428616Y109199D02*
X425676Y109199D01*
X426170Y109693D02*
X428818Y109693D01*
X428324Y110187D02*
X426664Y110187D01*
X427158Y110681D02*
X427830Y110681D01*
X423958Y114553D02*
X418670Y109265D01*
X423958Y114553D02*
X425428Y113083D01*
X420140Y107795D01*
X418670Y109265D01*
X419646Y108289D02*
X420634Y108289D01*
X421128Y108783D02*
X419152Y108783D01*
X418682Y109277D02*
X421622Y109277D01*
X422116Y109771D02*
X419176Y109771D01*
X419670Y110265D02*
X422610Y110265D01*
X423104Y110759D02*
X420164Y110759D01*
X420658Y111253D02*
X423598Y111253D01*
X424092Y111747D02*
X421152Y111747D01*
X421646Y112241D02*
X424586Y112241D01*
X425080Y112735D02*
X422140Y112735D01*
X422634Y113229D02*
X425282Y113229D01*
X424788Y113723D02*
X423128Y113723D01*
X423622Y114217D02*
X424294Y114217D01*
X420423Y118088D02*
X415135Y112800D01*
X420423Y118088D02*
X421893Y116618D01*
X416605Y111330D01*
X415135Y112800D01*
X416111Y111824D02*
X417099Y111824D01*
X417593Y112318D02*
X415617Y112318D01*
X415147Y112812D02*
X418087Y112812D01*
X418581Y113306D02*
X415641Y113306D01*
X416135Y113800D02*
X419075Y113800D01*
X419569Y114294D02*
X416629Y114294D01*
X417123Y114788D02*
X420063Y114788D01*
X420557Y115282D02*
X417617Y115282D01*
X418111Y115776D02*
X421051Y115776D01*
X421545Y116270D02*
X418605Y116270D01*
X419099Y116764D02*
X421747Y116764D01*
X421253Y117258D02*
X419593Y117258D01*
X420087Y117752D02*
X420759Y117752D01*
X416887Y121624D02*
X411599Y116336D01*
X416887Y121624D02*
X418357Y120154D01*
X413069Y114866D01*
X411599Y116336D01*
X412575Y115360D02*
X413563Y115360D01*
X414057Y115854D02*
X412081Y115854D01*
X411611Y116348D02*
X414551Y116348D01*
X415045Y116842D02*
X412105Y116842D01*
X412599Y117336D02*
X415539Y117336D01*
X416033Y117830D02*
X413093Y117830D01*
X413587Y118324D02*
X416527Y118324D01*
X417021Y118818D02*
X414081Y118818D01*
X414575Y119312D02*
X417515Y119312D01*
X418009Y119806D02*
X415069Y119806D01*
X415563Y120300D02*
X418211Y120300D01*
X417717Y120794D02*
X416057Y120794D01*
X416551Y121288D02*
X417223Y121288D01*
X413352Y125159D02*
X408064Y119871D01*
X413352Y125159D02*
X414822Y123689D01*
X409534Y118401D01*
X408064Y119871D01*
X409040Y118895D02*
X410028Y118895D01*
X410522Y119389D02*
X408546Y119389D01*
X408076Y119883D02*
X411016Y119883D01*
X411510Y120377D02*
X408570Y120377D01*
X409064Y120871D02*
X412004Y120871D01*
X412498Y121365D02*
X409558Y121365D01*
X410052Y121859D02*
X412992Y121859D01*
X413486Y122353D02*
X410546Y122353D01*
X411040Y122847D02*
X413980Y122847D01*
X414474Y123341D02*
X411534Y123341D01*
X412028Y123835D02*
X414676Y123835D01*
X414182Y124329D02*
X412522Y124329D01*
X413016Y124823D02*
X413688Y124823D01*
X409816Y128695D02*
X404528Y123407D01*
X409816Y128695D02*
X411286Y127225D01*
X405998Y121937D01*
X404528Y123407D01*
X405504Y122431D02*
X406492Y122431D01*
X406986Y122925D02*
X405010Y122925D01*
X404540Y123419D02*
X407480Y123419D01*
X407974Y123913D02*
X405034Y123913D01*
X405528Y124407D02*
X408468Y124407D01*
X408962Y124901D02*
X406022Y124901D01*
X406516Y125395D02*
X409456Y125395D01*
X409950Y125889D02*
X407010Y125889D01*
X407504Y126383D02*
X410444Y126383D01*
X410938Y126877D02*
X407998Y126877D01*
X408492Y127371D02*
X411140Y127371D01*
X410646Y127865D02*
X408986Y127865D01*
X409480Y128359D02*
X410152Y128359D01*
X406281Y132231D02*
X400993Y126943D01*
X406281Y132231D02*
X407751Y130761D01*
X402463Y125473D01*
X400993Y126943D01*
X401969Y125967D02*
X402957Y125967D01*
X403451Y126461D02*
X401475Y126461D01*
X401005Y126955D02*
X403945Y126955D01*
X404439Y127449D02*
X401499Y127449D01*
X401993Y127943D02*
X404933Y127943D01*
X405427Y128437D02*
X402487Y128437D01*
X402981Y128931D02*
X405921Y128931D01*
X406415Y129425D02*
X403475Y129425D01*
X403969Y129919D02*
X406909Y129919D01*
X407403Y130413D02*
X404463Y130413D01*
X404957Y130907D02*
X407605Y130907D01*
X407111Y131401D02*
X405451Y131401D01*
X405945Y131895D02*
X406617Y131895D01*
X402745Y135766D02*
X397457Y130478D01*
X402745Y135766D02*
X404215Y134296D01*
X398927Y129008D01*
X397457Y130478D01*
X398433Y129502D02*
X399421Y129502D01*
X399915Y129996D02*
X397939Y129996D01*
X397469Y130490D02*
X400409Y130490D01*
X400903Y130984D02*
X397963Y130984D01*
X398457Y131478D02*
X401397Y131478D01*
X401891Y131972D02*
X398951Y131972D01*
X399445Y132466D02*
X402385Y132466D01*
X402879Y132960D02*
X399939Y132960D01*
X400433Y133454D02*
X403373Y133454D01*
X403867Y133948D02*
X400927Y133948D01*
X401421Y134442D02*
X404069Y134442D01*
X403575Y134936D02*
X401915Y134936D01*
X402409Y135430D02*
X403081Y135430D01*
X393553Y129008D02*
X388265Y134296D01*
X389735Y135766D01*
X395023Y130478D01*
X393553Y129008D01*
X394047Y129502D02*
X393059Y129502D01*
X392565Y129996D02*
X394541Y129996D01*
X395011Y130490D02*
X392071Y130490D01*
X391577Y130984D02*
X394517Y130984D01*
X394023Y131478D02*
X391083Y131478D01*
X390589Y131972D02*
X393529Y131972D01*
X393035Y132466D02*
X390095Y132466D01*
X389601Y132960D02*
X392541Y132960D01*
X392047Y133454D02*
X389107Y133454D01*
X388613Y133948D02*
X391553Y133948D01*
X391059Y134442D02*
X388411Y134442D01*
X388905Y134936D02*
X390565Y134936D01*
X390071Y135430D02*
X389399Y135430D01*
X384729Y130761D02*
X390017Y125473D01*
X384729Y130761D02*
X386199Y132231D01*
X391487Y126943D01*
X390017Y125473D01*
X390511Y125967D02*
X389523Y125967D01*
X389029Y126461D02*
X391005Y126461D01*
X391475Y126955D02*
X388535Y126955D01*
X388041Y127449D02*
X390981Y127449D01*
X390487Y127943D02*
X387547Y127943D01*
X387053Y128437D02*
X389993Y128437D01*
X389499Y128931D02*
X386559Y128931D01*
X386065Y129425D02*
X389005Y129425D01*
X388511Y129919D02*
X385571Y129919D01*
X385077Y130413D02*
X388017Y130413D01*
X387523Y130907D02*
X384875Y130907D01*
X385369Y131401D02*
X387029Y131401D01*
X386535Y131895D02*
X385863Y131895D01*
X381194Y127225D02*
X386482Y121937D01*
X381194Y127225D02*
X382664Y128695D01*
X387952Y123407D01*
X386482Y121937D01*
X386976Y122431D02*
X385988Y122431D01*
X385494Y122925D02*
X387470Y122925D01*
X387940Y123419D02*
X385000Y123419D01*
X384506Y123913D02*
X387446Y123913D01*
X386952Y124407D02*
X384012Y124407D01*
X383518Y124901D02*
X386458Y124901D01*
X385964Y125395D02*
X383024Y125395D01*
X382530Y125889D02*
X385470Y125889D01*
X384976Y126383D02*
X382036Y126383D01*
X381542Y126877D02*
X384482Y126877D01*
X383988Y127371D02*
X381340Y127371D01*
X381834Y127865D02*
X383494Y127865D01*
X383000Y128359D02*
X382328Y128359D01*
X377658Y123689D02*
X382946Y118401D01*
X377658Y123689D02*
X379128Y125159D01*
X384416Y119871D01*
X382946Y118401D01*
X383440Y118895D02*
X382452Y118895D01*
X381958Y119389D02*
X383934Y119389D01*
X384404Y119883D02*
X381464Y119883D01*
X380970Y120377D02*
X383910Y120377D01*
X383416Y120871D02*
X380476Y120871D01*
X379982Y121365D02*
X382922Y121365D01*
X382428Y121859D02*
X379488Y121859D01*
X378994Y122353D02*
X381934Y122353D01*
X381440Y122847D02*
X378500Y122847D01*
X378006Y123341D02*
X380946Y123341D01*
X380452Y123835D02*
X377804Y123835D01*
X378298Y124329D02*
X379958Y124329D01*
X379464Y124823D02*
X378792Y124823D01*
X374123Y120154D02*
X379411Y114866D01*
X374123Y120154D02*
X375593Y121624D01*
X380881Y116336D01*
X379411Y114866D01*
X379905Y115360D02*
X378917Y115360D01*
X378423Y115854D02*
X380399Y115854D01*
X380869Y116348D02*
X377929Y116348D01*
X377435Y116842D02*
X380375Y116842D01*
X379881Y117336D02*
X376941Y117336D01*
X376447Y117830D02*
X379387Y117830D01*
X378893Y118324D02*
X375953Y118324D01*
X375459Y118818D02*
X378399Y118818D01*
X377905Y119312D02*
X374965Y119312D01*
X374471Y119806D02*
X377411Y119806D01*
X376917Y120300D02*
X374269Y120300D01*
X374763Y120794D02*
X376423Y120794D01*
X375929Y121288D02*
X375257Y121288D01*
X370587Y116618D02*
X375875Y111330D01*
X370587Y116618D02*
X372057Y118088D01*
X377345Y112800D01*
X375875Y111330D01*
X376369Y111824D02*
X375381Y111824D01*
X374887Y112318D02*
X376863Y112318D01*
X377333Y112812D02*
X374393Y112812D01*
X373899Y113306D02*
X376839Y113306D01*
X376345Y113800D02*
X373405Y113800D01*
X372911Y114294D02*
X375851Y114294D01*
X375357Y114788D02*
X372417Y114788D01*
X371923Y115282D02*
X374863Y115282D01*
X374369Y115776D02*
X371429Y115776D01*
X370935Y116270D02*
X373875Y116270D01*
X373381Y116764D02*
X370733Y116764D01*
X371227Y117258D02*
X372887Y117258D01*
X372393Y117752D02*
X371721Y117752D01*
X367052Y113083D02*
X372340Y107795D01*
X367052Y113083D02*
X368522Y114553D01*
X373810Y109265D01*
X372340Y107795D01*
X372834Y108289D02*
X371846Y108289D01*
X371352Y108783D02*
X373328Y108783D01*
X373798Y109277D02*
X370858Y109277D01*
X370364Y109771D02*
X373304Y109771D01*
X372810Y110265D02*
X369870Y110265D01*
X369376Y110759D02*
X372316Y110759D01*
X371822Y111253D02*
X368882Y111253D01*
X368388Y111747D02*
X371328Y111747D01*
X370834Y112241D02*
X367894Y112241D01*
X367400Y112735D02*
X370340Y112735D01*
X369846Y113229D02*
X367198Y113229D01*
X367692Y113723D02*
X369352Y113723D01*
X368858Y114217D02*
X368186Y114217D01*
X363516Y109547D02*
X368804Y104259D01*
X363516Y109547D02*
X364986Y111017D01*
X370274Y105729D01*
X368804Y104259D01*
X369298Y104753D02*
X368310Y104753D01*
X367816Y105247D02*
X369792Y105247D01*
X370262Y105741D02*
X367322Y105741D01*
X366828Y106235D02*
X369768Y106235D01*
X369274Y106729D02*
X366334Y106729D01*
X365840Y107223D02*
X368780Y107223D01*
X368286Y107717D02*
X365346Y107717D01*
X364852Y108211D02*
X367792Y108211D01*
X367298Y108705D02*
X364358Y108705D01*
X363864Y109199D02*
X366804Y109199D01*
X366310Y109693D02*
X363662Y109693D01*
X364156Y110187D02*
X365816Y110187D01*
X365322Y110681D02*
X364650Y110681D01*
X359981Y106012D02*
X365269Y100724D01*
X359981Y106012D02*
X361451Y107482D01*
X366739Y102194D01*
X365269Y100724D01*
X365763Y101218D02*
X364775Y101218D01*
X364281Y101712D02*
X366257Y101712D01*
X366727Y102206D02*
X363787Y102206D01*
X363293Y102700D02*
X366233Y102700D01*
X365739Y103194D02*
X362799Y103194D01*
X362305Y103688D02*
X365245Y103688D01*
X364751Y104182D02*
X361811Y104182D01*
X361317Y104676D02*
X364257Y104676D01*
X363763Y105170D02*
X360823Y105170D01*
X360329Y105664D02*
X363269Y105664D01*
X362775Y106158D02*
X360127Y106158D01*
X360621Y106652D02*
X362281Y106652D01*
X361787Y107146D02*
X361115Y107146D01*
X356445Y102476D02*
X361733Y97188D01*
X356445Y102476D02*
X357915Y103946D01*
X363203Y98658D01*
X361733Y97188D01*
X362227Y97682D02*
X361239Y97682D01*
X360745Y98176D02*
X362721Y98176D01*
X363191Y98670D02*
X360251Y98670D01*
X359757Y99164D02*
X362697Y99164D01*
X362203Y99658D02*
X359263Y99658D01*
X358769Y100152D02*
X361709Y100152D01*
X361215Y100646D02*
X358275Y100646D01*
X357781Y101140D02*
X360721Y101140D01*
X360227Y101634D02*
X357287Y101634D01*
X356793Y102128D02*
X359733Y102128D01*
X359239Y102622D02*
X356591Y102622D01*
X357085Y103116D02*
X358745Y103116D01*
X358251Y103610D02*
X357579Y103610D01*
X352909Y98941D02*
X358197Y93653D01*
X352909Y98941D02*
X354379Y100411D01*
X359667Y95123D01*
X358197Y93653D01*
X358691Y94147D02*
X357703Y94147D01*
X357209Y94641D02*
X359185Y94641D01*
X359655Y95135D02*
X356715Y95135D01*
X356221Y95629D02*
X359161Y95629D01*
X358667Y96123D02*
X355727Y96123D01*
X355233Y96617D02*
X358173Y96617D01*
X357679Y97111D02*
X354739Y97111D01*
X354245Y97605D02*
X357185Y97605D01*
X356691Y98099D02*
X353751Y98099D01*
X353257Y98593D02*
X356197Y98593D01*
X355703Y99087D02*
X353055Y99087D01*
X353549Y99581D02*
X355209Y99581D01*
X354715Y100075D02*
X354043Y100075D01*
X349374Y95405D02*
X354662Y90117D01*
X349374Y95405D02*
X350844Y96875D01*
X356132Y91587D01*
X354662Y90117D01*
X355156Y90611D02*
X354168Y90611D01*
X353674Y91105D02*
X355650Y91105D01*
X356120Y91599D02*
X353180Y91599D01*
X352686Y92093D02*
X355626Y92093D01*
X355132Y92587D02*
X352192Y92587D01*
X351698Y93081D02*
X354638Y93081D01*
X354144Y93575D02*
X351204Y93575D01*
X350710Y94069D02*
X353650Y94069D01*
X353156Y94563D02*
X350216Y94563D01*
X349722Y95057D02*
X352662Y95057D01*
X352168Y95551D02*
X349520Y95551D01*
X350014Y96045D02*
X351674Y96045D01*
X351180Y96539D02*
X350508Y96539D01*
D15*
G36*
X380683Y88900D02*
X374320Y82537D01*
X367957Y88900D01*
X374320Y95263D01*
X380683Y88900D01*
G37*
G36*
X402603Y110820D02*
X396240Y104457D01*
X389877Y110820D01*
X396240Y117183D01*
X402603Y110820D01*
G37*
G36*
X424523Y88900D02*
X418160Y82537D01*
X411797Y88900D01*
X418160Y95263D01*
X424523Y88900D01*
G37*
G36*
X402603Y66980D02*
X396240Y60617D01*
X389877Y66980D01*
X396240Y73343D01*
X402603Y66980D01*
G37*
D16*
G36*
X404725Y88900D02*
X396240Y80415D01*
X387755Y88900D01*
X396240Y97385D01*
X404725Y88900D01*
G37*
D10*
X236113Y44967D02*
X230387Y50693D01*
X236113Y44967D02*
X230739Y39593D01*
X225013Y45319D01*
X230387Y50693D01*
X228934Y41398D02*
X232544Y41398D01*
X234349Y43203D02*
X227129Y43203D01*
X225324Y45008D02*
X236072Y45008D01*
X234267Y46813D02*
X226507Y46813D01*
X228312Y48618D02*
X232462Y48618D01*
X230657Y50423D02*
X230117Y50423D01*
X241701Y62007D02*
X247427Y56281D01*
X242053Y50907D01*
X236327Y56633D01*
X241701Y62007D01*
X240248Y52712D02*
X243858Y52712D01*
X245663Y54517D02*
X238443Y54517D01*
X236638Y56322D02*
X247386Y56322D01*
X245581Y58127D02*
X237821Y58127D01*
X239626Y59932D02*
X243776Y59932D01*
X241971Y61737D02*
X241431Y61737D01*
D17*
X257530Y109700D02*
X257530Y118500D01*
X273330Y118500D01*
X273330Y109700D01*
X257530Y109700D01*
X257530Y111790D02*
X273330Y111790D01*
X273330Y113880D02*
X257530Y113880D01*
X257530Y115970D02*
X273330Y115970D01*
X273330Y118060D02*
X257530Y118060D01*
X257530Y93500D02*
X257530Y84700D01*
X257530Y93500D02*
X273330Y93500D01*
X273330Y84700D01*
X257530Y84700D01*
X257530Y86790D02*
X273330Y86790D01*
X273330Y88880D02*
X257530Y88880D01*
X257530Y90970D02*
X273330Y90970D01*
X273330Y93060D02*
X257530Y93060D01*
D18*
X126070Y62740D02*
X126070Y56640D01*
X120470Y56640D01*
X120470Y62740D01*
X126070Y62740D01*
X126070Y57970D02*
X120470Y57970D01*
X120470Y59300D02*
X126070Y59300D01*
X126070Y60630D02*
X120470Y60630D01*
X120470Y61960D02*
X126070Y61960D01*
X136070Y62740D02*
X136070Y56640D01*
X130470Y56640D01*
X130470Y62740D01*
X136070Y62740D01*
X136070Y57970D02*
X130470Y57970D01*
X130470Y59300D02*
X136070Y59300D01*
X136070Y60630D02*
X130470Y60630D01*
X130470Y61960D02*
X136070Y61960D01*
X284820Y61470D02*
X284820Y55370D01*
X279220Y55370D01*
X279220Y61470D01*
X284820Y61470D01*
X284820Y56700D02*
X279220Y56700D01*
X279220Y58030D02*
X284820Y58030D01*
X284820Y59360D02*
X279220Y59360D01*
X279220Y60690D02*
X284820Y60690D01*
X294820Y61470D02*
X294820Y55370D01*
X289220Y55370D01*
X289220Y61470D01*
X294820Y61470D01*
X294820Y56700D02*
X289220Y56700D01*
X289220Y58030D02*
X294820Y58030D01*
X294820Y59360D02*
X289220Y59360D01*
X289220Y60690D02*
X294820Y60690D01*
D19*
X101299Y93320D03*
X101299Y83820D03*
X101299Y74320D03*
X127301Y74320D03*
X127301Y93320D03*
D20*
X268050Y122420D02*
X279450Y122420D01*
X268050Y122420D02*
X268050Y127820D01*
X279450Y127820D01*
X279450Y122420D01*
X279450Y122990D02*
X268050Y122990D01*
X268050Y123560D02*
X279450Y123560D01*
X279450Y124130D02*
X268050Y124130D01*
X268050Y124700D02*
X279450Y124700D01*
X279450Y125270D02*
X268050Y125270D01*
X268050Y125840D02*
X279450Y125840D01*
X279450Y126410D02*
X268050Y126410D01*
X268050Y126980D02*
X279450Y126980D01*
X279450Y127550D02*
X268050Y127550D01*
X268050Y141420D02*
X279450Y141420D01*
X268050Y141420D02*
X268050Y146820D01*
X279450Y146820D01*
X279450Y141420D01*
X279450Y141990D02*
X268050Y141990D01*
X268050Y142560D02*
X279450Y142560D01*
X279450Y143130D02*
X268050Y143130D01*
X268050Y143700D02*
X279450Y143700D01*
X279450Y144270D02*
X268050Y144270D01*
X268050Y144840D02*
X279450Y144840D01*
X279450Y145410D02*
X268050Y145410D01*
X268050Y145980D02*
X279450Y145980D01*
X279450Y146550D02*
X268050Y146550D01*
X268050Y131920D02*
X279450Y131920D01*
X268050Y131920D02*
X268050Y137320D01*
X279450Y137320D01*
X279450Y131920D01*
X279450Y132490D02*
X268050Y132490D01*
X268050Y133060D02*
X279450Y133060D01*
X279450Y133630D02*
X268050Y133630D01*
X268050Y134200D02*
X279450Y134200D01*
X279450Y134770D02*
X268050Y134770D01*
X268050Y135340D02*
X279450Y135340D01*
X279450Y135910D02*
X268050Y135910D01*
X268050Y136480D02*
X279450Y136480D01*
X279450Y137050D02*
X268050Y137050D01*
X292050Y122420D02*
X303450Y122420D01*
X292050Y122420D02*
X292050Y127820D01*
X303450Y127820D01*
X303450Y122420D01*
X303450Y122990D02*
X292050Y122990D01*
X292050Y123560D02*
X303450Y123560D01*
X303450Y124130D02*
X292050Y124130D01*
X292050Y124700D02*
X303450Y124700D01*
X303450Y125270D02*
X292050Y125270D01*
X292050Y125840D02*
X303450Y125840D01*
X303450Y126410D02*
X292050Y126410D01*
X292050Y126980D02*
X303450Y126980D01*
X303450Y127550D02*
X292050Y127550D01*
X292050Y141420D02*
X303450Y141420D01*
X292050Y141420D02*
X292050Y146820D01*
X303450Y146820D01*
X303450Y141420D01*
X303450Y141990D02*
X292050Y141990D01*
X292050Y142560D02*
X303450Y142560D01*
X303450Y143130D02*
X292050Y143130D01*
X292050Y143700D02*
X303450Y143700D01*
X303450Y144270D02*
X292050Y144270D01*
X292050Y144840D02*
X303450Y144840D01*
X303450Y145410D02*
X292050Y145410D01*
X292050Y145980D02*
X303450Y145980D01*
X303450Y146550D02*
X292050Y146550D01*
D18*
X37400Y44960D02*
X37400Y38860D01*
X31800Y38860D01*
X31800Y44960D01*
X37400Y44960D01*
X37400Y40190D02*
X31800Y40190D01*
X31800Y41520D02*
X37400Y41520D01*
X37400Y42850D02*
X31800Y42850D01*
X31800Y44180D02*
X37400Y44180D01*
X47400Y44960D02*
X47400Y38860D01*
X41800Y38860D01*
X41800Y44960D01*
X47400Y44960D01*
X47400Y40190D02*
X41800Y40190D01*
X41800Y41520D02*
X47400Y41520D01*
X47400Y42850D02*
X41800Y42850D01*
X41800Y44180D02*
X47400Y44180D01*
D21*
X76300Y79320D02*
X88800Y79320D01*
X88800Y69320D01*
X76300Y69320D01*
X76300Y79320D01*
X76300Y71695D02*
X88800Y71695D01*
X88800Y74070D02*
X76300Y74070D01*
X76300Y76445D02*
X88800Y76445D01*
X88800Y78820D02*
X76300Y78820D01*
X76300Y98320D02*
X88800Y98320D01*
X88800Y88320D01*
X76300Y88320D01*
X76300Y98320D01*
X76300Y90695D02*
X88800Y90695D01*
X88800Y93070D02*
X76300Y93070D01*
X76300Y95445D02*
X88800Y95445D01*
X88800Y97820D02*
X76300Y97820D01*
D22*
X78500Y126870D02*
X86600Y126870D01*
X78500Y126870D02*
X78500Y138970D01*
X86600Y138970D01*
X86600Y126870D01*
X86600Y127725D02*
X78500Y127725D01*
X78500Y128580D02*
X86600Y128580D01*
X86600Y129435D02*
X78500Y129435D01*
X78500Y130290D02*
X86600Y130290D01*
X86600Y131145D02*
X78500Y131145D01*
X78500Y132000D02*
X86600Y132000D01*
X86600Y132855D02*
X78500Y132855D01*
X78500Y133710D02*
X86600Y133710D01*
X86600Y134565D02*
X78500Y134565D01*
X78500Y135420D02*
X86600Y135420D01*
X86600Y136275D02*
X78500Y136275D01*
X78500Y137130D02*
X86600Y137130D01*
X86600Y137985D02*
X78500Y137985D01*
X78500Y138840D02*
X86600Y138840D01*
X88000Y104870D02*
X96100Y104870D01*
X88000Y104870D02*
X88000Y116970D01*
X96100Y116970D01*
X96100Y104870D01*
X96100Y105725D02*
X88000Y105725D01*
X88000Y106580D02*
X96100Y106580D01*
X96100Y107435D02*
X88000Y107435D01*
X88000Y108290D02*
X96100Y108290D01*
X96100Y109145D02*
X88000Y109145D01*
X88000Y110000D02*
X96100Y110000D01*
X96100Y110855D02*
X88000Y110855D01*
X88000Y111710D02*
X96100Y111710D01*
X96100Y112565D02*
X88000Y112565D01*
X88000Y113420D02*
X96100Y113420D01*
X96100Y114275D02*
X88000Y114275D01*
X88000Y115130D02*
X96100Y115130D01*
X96100Y115985D02*
X88000Y115985D01*
X88000Y116840D02*
X96100Y116840D01*
X77100Y104870D02*
X69000Y104870D01*
X69000Y116970D01*
X77100Y116970D01*
X77100Y104870D01*
X77100Y105725D02*
X69000Y105725D01*
X69000Y106580D02*
X77100Y106580D01*
X77100Y107435D02*
X69000Y107435D01*
X69000Y108290D02*
X77100Y108290D01*
X77100Y109145D02*
X69000Y109145D01*
X69000Y110000D02*
X77100Y110000D01*
X77100Y110855D02*
X69000Y110855D01*
X69000Y111710D02*
X77100Y111710D01*
X77100Y112565D02*
X69000Y112565D01*
X69000Y113420D02*
X77100Y113420D01*
X77100Y114275D02*
X69000Y114275D01*
X69000Y115130D02*
X77100Y115130D01*
X77100Y115985D02*
X69000Y115985D01*
X69000Y116840D02*
X77100Y116840D01*
D18*
X60620Y132840D02*
X60620Y138940D01*
X66220Y138940D01*
X66220Y132840D01*
X60620Y132840D01*
X60620Y134170D02*
X66220Y134170D01*
X66220Y135500D02*
X60620Y135500D01*
X60620Y136830D02*
X66220Y136830D01*
X66220Y138160D02*
X60620Y138160D01*
X50620Y138940D02*
X50620Y132840D01*
X50620Y138940D02*
X56220Y138940D01*
X56220Y132840D01*
X50620Y132840D01*
X50620Y134170D02*
X56220Y134170D01*
X56220Y135500D02*
X50620Y135500D01*
X50620Y136830D02*
X56220Y136830D01*
X56220Y138160D02*
X50620Y138160D01*
X37760Y138940D02*
X37760Y132840D01*
X37760Y138940D02*
X43360Y138940D01*
X43360Y132840D01*
X37760Y132840D01*
X37760Y134170D02*
X43360Y134170D01*
X43360Y135500D02*
X37760Y135500D01*
X37760Y136830D02*
X43360Y136830D01*
X43360Y138160D02*
X37760Y138160D01*
X27760Y138940D02*
X27760Y132840D01*
X27760Y138940D02*
X33360Y138940D01*
X33360Y132840D01*
X27760Y132840D01*
X27760Y134170D02*
X33360Y134170D01*
X33360Y135500D02*
X27760Y135500D01*
X27760Y136830D02*
X33360Y136830D01*
X33360Y138160D02*
X27760Y138160D01*
D23*
X103460Y47710D02*
X103460Y44110D01*
X103460Y47710D02*
X109060Y47710D01*
X109060Y44110D01*
X103460Y44110D01*
X103460Y44490D02*
X109060Y44490D01*
X109060Y44870D02*
X103460Y44870D01*
X103460Y45250D02*
X109060Y45250D01*
X109060Y45630D02*
X103460Y45630D01*
X103460Y46010D02*
X109060Y46010D01*
X109060Y46390D02*
X103460Y46390D01*
X103460Y46770D02*
X109060Y46770D01*
X109060Y47150D02*
X103460Y47150D01*
X103460Y47530D02*
X109060Y47530D01*
X103460Y39710D02*
X103460Y36110D01*
X103460Y39710D02*
X109060Y39710D01*
X109060Y36110D01*
X103460Y36110D01*
X103460Y36490D02*
X109060Y36490D01*
X109060Y36870D02*
X103460Y36870D01*
X103460Y37250D02*
X109060Y37250D01*
X109060Y37630D02*
X103460Y37630D01*
X103460Y38010D02*
X109060Y38010D01*
X109060Y38390D02*
X103460Y38390D01*
X103460Y38770D02*
X109060Y38770D01*
X109060Y39150D02*
X103460Y39150D01*
X103460Y39530D02*
X109060Y39530D01*
X114460Y40110D02*
X114460Y43710D01*
X120060Y43710D01*
X120060Y40110D01*
X114460Y40110D01*
X114460Y40490D02*
X120060Y40490D01*
X120060Y40870D02*
X114460Y40870D01*
X114460Y41250D02*
X120060Y41250D01*
X120060Y41630D02*
X114460Y41630D01*
X114460Y42010D02*
X120060Y42010D01*
X120060Y42390D02*
X114460Y42390D01*
X114460Y42770D02*
X120060Y42770D01*
X120060Y43150D02*
X114460Y43150D01*
X114460Y43530D02*
X120060Y43530D01*
D11*
X80440Y58090D02*
X80440Y61290D01*
X83640Y61290D01*
X83640Y58090D01*
X80440Y58090D01*
X80440Y58850D02*
X83640Y58850D01*
X83640Y59610D02*
X80440Y59610D01*
X80440Y60370D02*
X83640Y60370D01*
X83640Y61130D02*
X80440Y61130D01*
X73840Y61290D02*
X73840Y58090D01*
X73840Y61290D02*
X77040Y61290D01*
X77040Y58090D01*
X73840Y58090D01*
X73840Y58850D02*
X77040Y58850D01*
X77040Y59610D02*
X73840Y59610D01*
X73840Y60370D02*
X77040Y60370D01*
X77040Y61130D02*
X73840Y61130D01*
D23*
X38700Y100100D02*
X38700Y103700D01*
X51300Y103700D01*
X51300Y100100D01*
X38700Y100100D01*
X38700Y100480D02*
X51300Y100480D01*
X51300Y100860D02*
X38700Y100860D01*
X38700Y101240D02*
X51300Y101240D01*
X51300Y101620D02*
X38700Y101620D01*
X38700Y102000D02*
X51300Y102000D01*
X51300Y102380D02*
X38700Y102380D01*
X38700Y102760D02*
X51300Y102760D01*
X51300Y103140D02*
X38700Y103140D01*
X38700Y103520D02*
X51300Y103520D01*
X38700Y97200D02*
X38700Y93600D01*
X38700Y97200D02*
X51300Y97200D01*
X51300Y93600D01*
X38700Y93600D01*
X38700Y93980D02*
X51300Y93980D01*
X51300Y94360D02*
X38700Y94360D01*
X38700Y94740D02*
X51300Y94740D01*
X51300Y95120D02*
X38700Y95120D01*
X38700Y95500D02*
X51300Y95500D01*
X51300Y95880D02*
X38700Y95880D01*
X38700Y96260D02*
X51300Y96260D01*
X51300Y96640D02*
X38700Y96640D01*
X38700Y97020D02*
X51300Y97020D01*
X38700Y90700D02*
X38700Y87100D01*
X38700Y90700D02*
X51300Y90700D01*
X51300Y87100D01*
X38700Y87100D01*
X38700Y87480D02*
X51300Y87480D01*
X51300Y87860D02*
X38700Y87860D01*
X38700Y88240D02*
X51300Y88240D01*
X51300Y88620D02*
X38700Y88620D01*
X38700Y89000D02*
X51300Y89000D01*
X51300Y89380D02*
X38700Y89380D01*
X38700Y89760D02*
X51300Y89760D01*
X51300Y90140D02*
X38700Y90140D01*
X38700Y90520D02*
X51300Y90520D01*
X38700Y84200D02*
X38700Y80600D01*
X38700Y84200D02*
X51300Y84200D01*
X51300Y80600D01*
X38700Y80600D01*
X38700Y80980D02*
X51300Y80980D01*
X51300Y81360D02*
X38700Y81360D01*
X38700Y81740D02*
X51300Y81740D01*
X51300Y82120D02*
X38700Y82120D01*
X38700Y82500D02*
X51300Y82500D01*
X51300Y82880D02*
X38700Y82880D01*
X38700Y83260D02*
X51300Y83260D01*
X51300Y83640D02*
X38700Y83640D01*
X38700Y84020D02*
X51300Y84020D01*
X38700Y77700D02*
X38700Y74100D01*
X38700Y77700D02*
X51300Y77700D01*
X51300Y74100D01*
X38700Y74100D01*
X38700Y74480D02*
X51300Y74480D01*
X51300Y74860D02*
X38700Y74860D01*
X38700Y75240D02*
X51300Y75240D01*
X51300Y75620D02*
X38700Y75620D01*
X38700Y76000D02*
X51300Y76000D01*
X51300Y76380D02*
X38700Y76380D01*
X38700Y76760D02*
X51300Y76760D01*
X51300Y77140D02*
X38700Y77140D01*
X38700Y77520D02*
X51300Y77520D01*
D24*
X11750Y72150D02*
X11750Y85650D01*
X25250Y85650D01*
X25250Y72150D01*
X11750Y72150D01*
X11750Y73575D02*
X25250Y73575D01*
X25250Y75000D02*
X11750Y75000D01*
X11750Y76425D02*
X25250Y76425D01*
X25250Y77850D02*
X11750Y77850D01*
X11750Y79275D02*
X25250Y79275D01*
X25250Y80700D02*
X11750Y80700D01*
X11750Y82125D02*
X25250Y82125D01*
X25250Y83550D02*
X11750Y83550D01*
X11750Y84975D02*
X25250Y84975D01*
X11750Y92150D02*
X11750Y105650D01*
X25250Y105650D01*
X25250Y92150D01*
X11750Y92150D01*
X11750Y93575D02*
X25250Y93575D01*
X25250Y95000D02*
X11750Y95000D01*
X11750Y96425D02*
X25250Y96425D01*
X25250Y97850D02*
X11750Y97850D01*
X11750Y99275D02*
X25250Y99275D01*
X25250Y100700D02*
X11750Y100700D01*
X11750Y102125D02*
X25250Y102125D01*
X25250Y103550D02*
X11750Y103550D01*
X11750Y104975D02*
X25250Y104975D01*
D25*
X11550Y65350D02*
X11550Y55450D01*
X11550Y65350D02*
X25450Y65350D01*
X25450Y55450D01*
X11550Y55450D01*
X11550Y56495D02*
X25450Y56495D01*
X25450Y57540D02*
X11550Y57540D01*
X11550Y58585D02*
X25450Y58585D01*
X25450Y59630D02*
X11550Y59630D01*
X11550Y60675D02*
X25450Y60675D01*
X25450Y61720D02*
X11550Y61720D01*
X11550Y62765D02*
X25450Y62765D01*
X25450Y63810D02*
X11550Y63810D01*
X11550Y64855D02*
X25450Y64855D01*
X11550Y112450D02*
X11550Y122350D01*
X25450Y122350D01*
X25450Y112450D01*
X11550Y112450D01*
X11550Y113495D02*
X25450Y113495D01*
X25450Y114540D02*
X11550Y114540D01*
X11550Y115585D02*
X25450Y115585D01*
X25450Y116630D02*
X11550Y116630D01*
X11550Y117675D02*
X25450Y117675D01*
X25450Y118720D02*
X11550Y118720D01*
X11550Y119765D02*
X25450Y119765D01*
X25450Y120810D02*
X11550Y120810D01*
X11550Y121855D02*
X25450Y121855D01*
D26*
X49500Y63400D03*
X49500Y114400D03*
X41500Y63400D03*
X41500Y114400D03*
D27*
X315640Y69400D03*
X337140Y69400D03*
X337140Y108400D03*
X315640Y108400D03*
D28*
G36*
X438685Y114301D02*
X435150Y117836D01*
X439745Y122431D01*
X443280Y118896D01*
X438685Y114301D01*
G37*
G36*
X444342Y108644D02*
X440807Y112179D01*
X445402Y116774D01*
X448937Y113239D01*
X444342Y108644D01*
G37*
G36*
X449999Y102987D02*
X446464Y106522D01*
X451059Y111117D01*
X454594Y107582D01*
X449999Y102987D01*
G37*
G36*
X455656Y97330D02*
X452121Y100865D01*
X456716Y105460D01*
X460251Y101925D01*
X455656Y97330D01*
G37*
G36*
X464495Y106169D02*
X460960Y109704D01*
X465555Y114299D01*
X469090Y110764D01*
X464495Y106169D01*
G37*
G36*
X458838Y111826D02*
X455303Y115361D01*
X459898Y119956D01*
X463433Y116421D01*
X458838Y111826D01*
G37*
G36*
X453181Y117483D02*
X449646Y121018D01*
X454241Y125613D01*
X457776Y122078D01*
X453181Y117483D01*
G37*
G36*
X447524Y123140D02*
X443989Y126675D01*
X448584Y131270D01*
X452119Y127735D01*
X447524Y123140D01*
G37*
D12*
X476944Y126576D02*
X482176Y121344D01*
X477650Y116818D01*
X472418Y122050D01*
X476944Y126576D01*
X476130Y118338D02*
X479170Y118338D01*
X480690Y119858D02*
X474610Y119858D01*
X473090Y121378D02*
X482142Y121378D01*
X480622Y122898D02*
X473266Y122898D01*
X474786Y124418D02*
X479102Y124418D01*
X477582Y125938D02*
X476306Y125938D01*
X487550Y137182D02*
X492782Y131950D01*
X488256Y127424D01*
X483024Y132656D01*
X487550Y137182D01*
X486736Y128944D02*
X489776Y128944D01*
X491296Y130464D02*
X485216Y130464D01*
X483696Y131984D02*
X492748Y131984D01*
X491228Y133504D02*
X483872Y133504D01*
X485392Y135024D02*
X489708Y135024D01*
X488188Y136544D02*
X486912Y136544D01*
X502344Y126576D02*
X507576Y121344D01*
X503050Y116818D01*
X497818Y122050D01*
X502344Y126576D01*
X501530Y118338D02*
X504570Y118338D01*
X506090Y119858D02*
X500010Y119858D01*
X498490Y121378D02*
X507542Y121378D01*
X506022Y122898D02*
X498666Y122898D01*
X500186Y124418D02*
X504502Y124418D01*
X502982Y125938D02*
X501706Y125938D01*
X512950Y137182D02*
X518182Y131950D01*
X513656Y127424D01*
X508424Y132656D01*
X512950Y137182D01*
X512136Y128944D02*
X515176Y128944D01*
X516696Y130464D02*
X510616Y130464D01*
X509096Y131984D02*
X518148Y131984D01*
X516628Y133504D02*
X509272Y133504D01*
X510792Y135024D02*
X515108Y135024D01*
X513588Y136544D02*
X512312Y136544D01*
X527744Y126576D02*
X532976Y121344D01*
X528450Y116818D01*
X523218Y122050D01*
X527744Y126576D01*
X526930Y118338D02*
X529970Y118338D01*
X531490Y119858D02*
X525410Y119858D01*
X523890Y121378D02*
X532942Y121378D01*
X531422Y122898D02*
X524066Y122898D01*
X525586Y124418D02*
X529902Y124418D01*
X528382Y125938D02*
X527106Y125938D01*
X538350Y137182D02*
X543582Y131950D01*
X539056Y127424D01*
X533824Y132656D01*
X538350Y137182D01*
X537536Y128944D02*
X540576Y128944D01*
X542096Y130464D02*
X536016Y130464D01*
X534496Y131984D02*
X543548Y131984D01*
X542028Y133504D02*
X534672Y133504D01*
X536192Y135024D02*
X540508Y135024D01*
X538988Y136544D02*
X537712Y136544D01*
X553144Y126576D02*
X558376Y121344D01*
X553850Y116818D01*
X548618Y122050D01*
X553144Y126576D01*
X552330Y118338D02*
X555370Y118338D01*
X556890Y119858D02*
X550810Y119858D01*
X549290Y121378D02*
X558342Y121378D01*
X556822Y122898D02*
X549466Y122898D01*
X550986Y124418D02*
X555302Y124418D01*
X553782Y125938D02*
X552506Y125938D01*
X563750Y137182D02*
X568982Y131950D01*
X564456Y127424D01*
X559224Y132656D01*
X563750Y137182D01*
X562936Y128944D02*
X565976Y128944D01*
X567496Y130464D02*
X561416Y130464D01*
X559896Y131984D02*
X568948Y131984D01*
X567428Y133504D02*
X560072Y133504D01*
X561592Y135024D02*
X565908Y135024D01*
X564388Y136544D02*
X563112Y136544D01*
X482176Y95944D02*
X476944Y101176D01*
X482176Y95944D02*
X477650Y91418D01*
X472418Y96650D01*
X476944Y101176D01*
X476130Y92938D02*
X479170Y92938D01*
X480690Y94458D02*
X474610Y94458D01*
X473090Y95978D02*
X482142Y95978D01*
X480622Y97498D02*
X473266Y97498D01*
X474786Y99018D02*
X479102Y99018D01*
X477582Y100538D02*
X476306Y100538D01*
X487550Y111782D02*
X492782Y106550D01*
X488256Y102024D01*
X483024Y107256D01*
X487550Y111782D01*
X486736Y103544D02*
X489776Y103544D01*
X491296Y105064D02*
X485216Y105064D01*
X483696Y106584D02*
X492748Y106584D01*
X491228Y108104D02*
X483872Y108104D01*
X485392Y109624D02*
X489708Y109624D01*
X488188Y111144D02*
X486912Y111144D01*
X502344Y101176D02*
X507576Y95944D01*
X503050Y91418D01*
X497818Y96650D01*
X502344Y101176D01*
X501530Y92938D02*
X504570Y92938D01*
X506090Y94458D02*
X500010Y94458D01*
X498490Y95978D02*
X507542Y95978D01*
X506022Y97498D02*
X498666Y97498D01*
X500186Y99018D02*
X504502Y99018D01*
X502982Y100538D02*
X501706Y100538D01*
X512950Y111782D02*
X518182Y106550D01*
X513656Y102024D01*
X508424Y107256D01*
X512950Y111782D01*
X512136Y103544D02*
X515176Y103544D01*
X516696Y105064D02*
X510616Y105064D01*
X509096Y106584D02*
X518148Y106584D01*
X516628Y108104D02*
X509272Y108104D01*
X510792Y109624D02*
X515108Y109624D01*
X513588Y111144D02*
X512312Y111144D01*
X527744Y101176D02*
X532976Y95944D01*
X528450Y91418D01*
X523218Y96650D01*
X527744Y101176D01*
X526930Y92938D02*
X529970Y92938D01*
X531490Y94458D02*
X525410Y94458D01*
X523890Y95978D02*
X532942Y95978D01*
X531422Y97498D02*
X524066Y97498D01*
X525586Y99018D02*
X529902Y99018D01*
X528382Y100538D02*
X527106Y100538D01*
X538350Y111782D02*
X543582Y106550D01*
X539056Y102024D01*
X533824Y107256D01*
X538350Y111782D01*
X537536Y103544D02*
X540576Y103544D01*
X542096Y105064D02*
X536016Y105064D01*
X534496Y106584D02*
X543548Y106584D01*
X542028Y108104D02*
X534672Y108104D01*
X536192Y109624D02*
X540508Y109624D01*
X538988Y111144D02*
X537712Y111144D01*
X553144Y101176D02*
X558376Y95944D01*
X553850Y91418D01*
X548618Y96650D01*
X553144Y101176D01*
X552330Y92938D02*
X555370Y92938D01*
X556890Y94458D02*
X550810Y94458D01*
X549290Y95978D02*
X558342Y95978D01*
X556822Y97498D02*
X549466Y97498D01*
X550986Y99018D02*
X555302Y99018D01*
X553782Y100538D02*
X552506Y100538D01*
X563750Y111782D02*
X568982Y106550D01*
X564456Y102024D01*
X559224Y107256D01*
X563750Y111782D01*
X562936Y103544D02*
X565976Y103544D01*
X567496Y105064D02*
X561416Y105064D01*
X559896Y106584D02*
X568948Y106584D01*
X567428Y108104D02*
X560072Y108104D01*
X561592Y109624D02*
X565908Y109624D01*
X564388Y111144D02*
X563112Y111144D01*
X482176Y70544D02*
X476944Y75776D01*
X482176Y70544D02*
X477650Y66018D01*
X472418Y71250D01*
X476944Y75776D01*
X476130Y67538D02*
X479170Y67538D01*
X480690Y69058D02*
X474610Y69058D01*
X473090Y70578D02*
X482142Y70578D01*
X480622Y72098D02*
X473266Y72098D01*
X474786Y73618D02*
X479102Y73618D01*
X477582Y75138D02*
X476306Y75138D01*
X487550Y86382D02*
X492782Y81150D01*
X488256Y76624D01*
X483024Y81856D01*
X487550Y86382D01*
X486736Y78144D02*
X489776Y78144D01*
X491296Y79664D02*
X485216Y79664D01*
X483696Y81184D02*
X492748Y81184D01*
X491228Y82704D02*
X483872Y82704D01*
X485392Y84224D02*
X489708Y84224D01*
X488188Y85744D02*
X486912Y85744D01*
X502344Y75776D02*
X507576Y70544D01*
X503050Y66018D01*
X497818Y71250D01*
X502344Y75776D01*
X501530Y67538D02*
X504570Y67538D01*
X506090Y69058D02*
X500010Y69058D01*
X498490Y70578D02*
X507542Y70578D01*
X506022Y72098D02*
X498666Y72098D01*
X500186Y73618D02*
X504502Y73618D01*
X502982Y75138D02*
X501706Y75138D01*
X512950Y86382D02*
X518182Y81150D01*
X513656Y76624D01*
X508424Y81856D01*
X512950Y86382D01*
X512136Y78144D02*
X515176Y78144D01*
X516696Y79664D02*
X510616Y79664D01*
X509096Y81184D02*
X518148Y81184D01*
X516628Y82704D02*
X509272Y82704D01*
X510792Y84224D02*
X515108Y84224D01*
X513588Y85744D02*
X512312Y85744D01*
X527744Y75776D02*
X532976Y70544D01*
X528450Y66018D01*
X523218Y71250D01*
X527744Y75776D01*
X526930Y67538D02*
X529970Y67538D01*
X531490Y69058D02*
X525410Y69058D01*
X523890Y70578D02*
X532942Y70578D01*
X531422Y72098D02*
X524066Y72098D01*
X525586Y73618D02*
X529902Y73618D01*
X528382Y75138D02*
X527106Y75138D01*
X538350Y86382D02*
X543582Y81150D01*
X539056Y76624D01*
X533824Y81856D01*
X538350Y86382D01*
X537536Y78144D02*
X540576Y78144D01*
X542096Y79664D02*
X536016Y79664D01*
X534496Y81184D02*
X543548Y81184D01*
X542028Y82704D02*
X534672Y82704D01*
X536192Y84224D02*
X540508Y84224D01*
X538988Y85744D02*
X537712Y85744D01*
X553144Y75776D02*
X558376Y70544D01*
X553850Y66018D01*
X548618Y71250D01*
X553144Y75776D01*
X552330Y67538D02*
X555370Y67538D01*
X556890Y69058D02*
X550810Y69058D01*
X549290Y70578D02*
X558342Y70578D01*
X556822Y72098D02*
X549466Y72098D01*
X550986Y73618D02*
X555302Y73618D01*
X553782Y75138D02*
X552506Y75138D01*
X563750Y86382D02*
X568982Y81150D01*
X564456Y76624D01*
X559224Y81856D01*
X563750Y86382D01*
X562936Y78144D02*
X565976Y78144D01*
X567496Y79664D02*
X561416Y79664D01*
X559896Y81184D02*
X568948Y81184D01*
X567428Y82704D02*
X560072Y82704D01*
X561592Y84224D02*
X565908Y84224D01*
X564388Y85744D02*
X563112Y85744D01*
X482176Y45144D02*
X476944Y50376D01*
X482176Y45144D02*
X477650Y40618D01*
X472418Y45850D01*
X476944Y50376D01*
X476130Y42138D02*
X479170Y42138D01*
X480690Y43658D02*
X474610Y43658D01*
X473090Y45178D02*
X482142Y45178D01*
X480622Y46698D02*
X473266Y46698D01*
X474786Y48218D02*
X479102Y48218D01*
X477582Y49738D02*
X476306Y49738D01*
X487550Y60982D02*
X492782Y55750D01*
X488256Y51224D01*
X483024Y56456D01*
X487550Y60982D01*
X486736Y52744D02*
X489776Y52744D01*
X491296Y54264D02*
X485216Y54264D01*
X483696Y55784D02*
X492748Y55784D01*
X491228Y57304D02*
X483872Y57304D01*
X485392Y58824D02*
X489708Y58824D01*
X488188Y60344D02*
X486912Y60344D01*
X502344Y50376D02*
X507576Y45144D01*
X503050Y40618D01*
X497818Y45850D01*
X502344Y50376D01*
X501530Y42138D02*
X504570Y42138D01*
X506090Y43658D02*
X500010Y43658D01*
X498490Y45178D02*
X507542Y45178D01*
X506022Y46698D02*
X498666Y46698D01*
X500186Y48218D02*
X504502Y48218D01*
X502982Y49738D02*
X501706Y49738D01*
X512950Y60982D02*
X518182Y55750D01*
X513656Y51224D01*
X508424Y56456D01*
X512950Y60982D01*
X512136Y52744D02*
X515176Y52744D01*
X516696Y54264D02*
X510616Y54264D01*
X509096Y55784D02*
X518148Y55784D01*
X516628Y57304D02*
X509272Y57304D01*
X510792Y58824D02*
X515108Y58824D01*
X513588Y60344D02*
X512312Y60344D01*
X527744Y50376D02*
X532976Y45144D01*
X528450Y40618D01*
X523218Y45850D01*
X527744Y50376D01*
X526930Y42138D02*
X529970Y42138D01*
X531490Y43658D02*
X525410Y43658D01*
X523890Y45178D02*
X532942Y45178D01*
X531422Y46698D02*
X524066Y46698D01*
X525586Y48218D02*
X529902Y48218D01*
X528382Y49738D02*
X527106Y49738D01*
X538350Y60982D02*
X543582Y55750D01*
X539056Y51224D01*
X533824Y56456D01*
X538350Y60982D01*
X537536Y52744D02*
X540576Y52744D01*
X542096Y54264D02*
X536016Y54264D01*
X534496Y55784D02*
X543548Y55784D01*
X542028Y57304D02*
X534672Y57304D01*
X536192Y58824D02*
X540508Y58824D01*
X538988Y60344D02*
X537712Y60344D01*
X553144Y50376D02*
X558376Y45144D01*
X553850Y40618D01*
X548618Y45850D01*
X553144Y50376D01*
X552330Y42138D02*
X555370Y42138D01*
X556890Y43658D02*
X550810Y43658D01*
X549290Y45178D02*
X558342Y45178D01*
X556822Y46698D02*
X549466Y46698D01*
X550986Y48218D02*
X555302Y48218D01*
X553782Y49738D02*
X552506Y49738D01*
X563750Y60982D02*
X568982Y55750D01*
X564456Y51224D01*
X559224Y56456D01*
X563750Y60982D01*
X562936Y52744D02*
X565976Y52744D01*
X567496Y54264D02*
X561416Y54264D01*
X559896Y55784D02*
X568948Y55784D01*
X567428Y57304D02*
X560072Y57304D01*
X561592Y58824D02*
X565908Y58824D01*
X564388Y60344D02*
X563112Y60344D01*
D11*
X238330Y124130D02*
X238330Y127330D01*
X238330Y124130D02*
X235130Y124130D01*
X235130Y127330D01*
X238330Y127330D01*
X238330Y124890D02*
X235130Y124890D01*
X235130Y125650D02*
X238330Y125650D01*
X238330Y126410D02*
X235130Y126410D01*
X235130Y127170D02*
X238330Y127170D01*
X244930Y127330D02*
X244930Y124130D01*
X241730Y124130D01*
X241730Y127330D01*
X244930Y127330D01*
X244930Y124890D02*
X241730Y124890D01*
X241730Y125650D02*
X244930Y125650D01*
X244930Y126410D02*
X241730Y126410D01*
X241730Y127170D02*
X244930Y127170D01*
D27*
X578530Y101150D03*
X600030Y101150D03*
X600030Y140150D03*
X578530Y140150D03*
X578530Y37650D03*
X600030Y37650D03*
X600030Y76650D03*
X578530Y76650D03*
D11*
X446610Y51130D02*
X446610Y47930D01*
X443410Y47930D01*
X443410Y51130D01*
X446610Y51130D01*
X446610Y48690D02*
X443410Y48690D01*
X443410Y49450D02*
X446610Y49450D01*
X446610Y50210D02*
X443410Y50210D01*
X443410Y50970D02*
X446610Y50970D01*
X453210Y51130D02*
X453210Y47930D01*
X450010Y47930D01*
X450010Y51130D01*
X453210Y51130D01*
X453210Y48690D02*
X450010Y48690D01*
X450010Y49450D02*
X453210Y49450D01*
X453210Y50210D02*
X450010Y50210D01*
X450010Y50970D02*
X453210Y50970D01*
X354660Y145210D02*
X351460Y145210D01*
X351460Y148410D01*
X354660Y148410D01*
X354660Y145210D01*
X354660Y145970D02*
X351460Y145970D01*
X351460Y146730D02*
X354660Y146730D01*
X354660Y147490D02*
X351460Y147490D01*
X351460Y148250D02*
X354660Y148250D01*
X354660Y138610D02*
X351460Y138610D01*
X351460Y141810D01*
X354660Y141810D01*
X354660Y138610D01*
X354660Y139370D02*
X351460Y139370D01*
X351460Y140130D02*
X354660Y140130D01*
X354660Y140890D02*
X351460Y140890D01*
X351460Y141650D02*
X354660Y141650D01*
D10*
X345680Y141360D02*
X337580Y141360D01*
X337580Y148960D01*
X345680Y148960D01*
X345680Y141360D01*
X345680Y143165D02*
X337580Y143165D01*
X337580Y144970D02*
X345680Y144970D01*
X345680Y146775D02*
X337580Y146775D01*
X337580Y148580D02*
X345680Y148580D01*
X345680Y125360D02*
X337580Y125360D01*
X337580Y132960D01*
X345680Y132960D01*
X345680Y125360D01*
X345680Y127165D02*
X337580Y127165D01*
X337580Y128970D02*
X345680Y128970D01*
X345680Y130775D02*
X337580Y130775D01*
X337580Y132580D02*
X345680Y132580D01*
D18*
X333250Y131150D02*
X327150Y131150D01*
X333250Y131150D02*
X333250Y125550D01*
X327150Y125550D01*
X327150Y131150D01*
X327150Y126880D02*
X333250Y126880D01*
X333250Y128210D02*
X327150Y128210D01*
X327150Y129540D02*
X333250Y129540D01*
X333250Y130870D02*
X327150Y130870D01*
X327150Y141150D02*
X333250Y141150D01*
X333250Y135550D01*
X327150Y135550D01*
X327150Y141150D01*
X327150Y136880D02*
X333250Y136880D01*
X333250Y138210D02*
X327150Y138210D01*
X327150Y139540D02*
X333250Y139540D01*
X333250Y140870D02*
X327150Y140870D01*
D11*
X313260Y137490D02*
X313260Y134290D01*
X310060Y134290D01*
X310060Y137490D01*
X313260Y137490D01*
X313260Y135050D02*
X310060Y135050D01*
X310060Y135810D02*
X313260Y135810D01*
X313260Y136570D02*
X310060Y136570D01*
X310060Y137330D02*
X313260Y137330D01*
X319860Y137490D02*
X319860Y134290D01*
X316660Y134290D01*
X316660Y137490D01*
X319860Y137490D01*
X319860Y135050D02*
X316660Y135050D01*
X316660Y135810D02*
X319860Y135810D01*
X319860Y136570D02*
X316660Y136570D01*
X316660Y137330D02*
X319860Y137330D01*
X313260Y126060D02*
X313260Y122860D01*
X310060Y122860D01*
X310060Y126060D01*
X313260Y126060D01*
X313260Y123620D02*
X310060Y123620D01*
X310060Y124380D02*
X313260Y124380D01*
X313260Y125140D02*
X310060Y125140D01*
X310060Y125900D02*
X313260Y125900D01*
X319860Y126060D02*
X319860Y122860D01*
X316660Y122860D01*
X316660Y126060D01*
X319860Y126060D01*
X319860Y123620D02*
X316660Y123620D01*
X316660Y124380D02*
X319860Y124380D01*
X319860Y125140D02*
X316660Y125140D01*
X316660Y125900D02*
X319860Y125900D01*
X259920Y133020D02*
X259920Y136220D01*
X259920Y133020D02*
X256720Y133020D01*
X256720Y136220D01*
X259920Y136220D01*
X259920Y133780D02*
X256720Y133780D01*
X256720Y134540D02*
X259920Y134540D01*
X259920Y135300D02*
X256720Y135300D01*
X256720Y136060D02*
X259920Y136060D01*
X266520Y136220D02*
X266520Y133020D01*
X263320Y133020D01*
X263320Y136220D01*
X266520Y136220D01*
X266520Y133780D02*
X263320Y133780D01*
X263320Y134540D02*
X266520Y134540D01*
X266520Y135300D02*
X263320Y135300D01*
X263320Y136060D02*
X266520Y136060D01*
M02*
